<svg width="256" height="70" viewBox="0 0 256 70" fill="none" xmlns="http://www.w3.org/2000/svg">
<g clip-path="url(#clip0_2119_22253)">
<path d="M64.8312 0H32.685C29.7773 0 27.4619 2.31538 27.4619 5.16923V31.7692H64.7773C67.6312 31.7692 69.9465 29.4538 69.9465 26.6V5.16923C70.0004 2.31538 67.685 0 64.8312 0Z" fill="#92C83E"/>
<path d="M38.8228 18.4153C40.2205 18.4153 41.3535 17.2822 41.3535 15.8845C41.3535 14.4868 40.2205 13.3538 38.8228 13.3538C37.4251 13.3538 36.292 14.4868 36.292 15.8845C36.292 17.2822 37.4251 18.4153 38.8228 18.4153Z" fill="white"/>
<path d="M48.731 18.4153C50.1287 18.4153 51.2617 17.2822 51.2617 15.8845C51.2617 14.4868 50.1287 13.3538 48.731 13.3538C47.3333 13.3538 46.2002 14.4868 46.2002 15.8845C46.2002 17.2822 47.3333 18.4153 48.731 18.4153Z" fill="white"/>
<path d="M58.6382 18.4153C60.0359 18.4153 61.169 17.2822 61.169 15.8845C61.169 14.4868 60.0359 13.3538 58.6382 13.3538C57.2405 13.3538 56.1074 14.4868 56.1074 15.8845C56.1074 17.2822 57.2405 18.4153 58.6382 18.4153Z" fill="white"/>
<path d="M5.33036 37.9076C2.47652 37.9076 0.161133 40.223 0.161133 43.0768V64.7768C0.161133 67.6307 2.47652 69.9461 5.33036 69.9461H37.4765C40.3304 69.9461 42.6457 67.6307 42.6457 64.7768V37.8538H5.33036V37.9076Z" fill="#FBB03B"/>
<path d="M11.4692 56.4846C12.8669 56.4846 14 55.3516 14 53.9539C14 52.5562 12.8669 51.4231 11.4692 51.4231C10.0715 51.4231 8.93848 52.5562 8.93848 53.9539C8.93848 55.3516 10.0715 56.4846 11.4692 56.4846Z" fill="white"/>
<path d="M21.3765 56.4846C22.7742 56.4846 23.9072 55.3516 23.9072 53.9539C23.9072 52.5562 22.7742 51.4231 21.3765 51.4231C19.9788 51.4231 18.8457 52.5562 18.8457 53.9539C18.8457 55.3516 19.9788 56.4846 21.3765 56.4846Z" fill="white"/>
<path d="M31.2847 56.4846C32.6824 56.4846 33.8154 55.3516 33.8154 53.9539C33.8154 52.5562 32.6824 51.4231 31.2847 51.4231C29.887 51.4231 28.7539 52.5562 28.7539 53.9539C28.7539 55.3516 29.887 56.4846 31.2847 56.4846Z" fill="white"/>
<path d="M21.3769 21.1077V31.8231H10.7154C4.7923 31.8231 0 27.0308 0 21.1077C0 15.1846 4.7923 10.3923 10.7154 10.3923C16.6385 10.3923 21.3769 15.2385 21.3769 21.1077Z" fill="#ED1E79"/>
<path d="M48.623 48.6231V37.9077H59.3384C65.2615 37.9077 70.0538 42.7 70.0538 48.6231C70.0538 54.5462 65.2615 59.3385 59.3384 59.3385C53.4154 59.3385 48.623 54.4923 48.623 48.6231Z" fill="#3FA9F5"/>
</g>
<g clip-path="url(#clip1_2119_22253)">
<path d="M95.4191 22.2896H88.4472C87.6581 22.2896 87.0488 22.4993 86.6293 22.9188C86.2098 23.3383 86 23.9476 86 24.7367V45.1931C86 45.9822 86.2098 46.5915 86.6293 47.011C87.0488 47.4305 87.6581 47.6403 88.4472 47.6403H95.4191C97.5567 47.6403 99.4445 47.3606 101.083 46.7913C102.721 46.2319 104.119 45.4029 105.258 44.3241C106.396 43.2454 107.255 41.9169 107.845 40.3487C108.434 38.7805 108.724 36.9726 108.724 34.935C108.724 30.8597 107.565 27.7333 105.258 25.5458C102.94 23.3783 99.6642 22.2896 95.4191 22.2896ZM103.37 38.8504C103.01 39.9692 102.461 40.8881 101.732 41.6172C101.003 42.3464 100.094 42.8958 98.995 43.2753C97.9063 43.6449 96.6177 43.8347 95.1295 43.8347H90.5947V26.0952H95.1295C98.0561 26.0952 100.244 26.8243 101.712 28.2926C103.17 29.7509 103.909 31.9684 103.909 34.9449C103.909 36.4332 103.73 37.7317 103.37 38.8504Z" fill="black"/>
<path d="M124.136 23.9378C123.826 23.2386 123.446 22.7491 123.007 22.4495C122.567 22.1498 122.068 22 121.519 22C120.969 22 120.43 22.1498 119.99 22.4495C119.551 22.7491 119.171 23.2486 118.862 23.9378L109.373 44.9735C109.133 45.5229 109.053 46.0223 109.123 46.4618C109.193 46.9013 109.403 47.2609 109.752 47.5206C110.102 47.7803 110.561 47.9201 111.141 47.9201C111.76 47.9201 112.239 47.7603 112.579 47.4506C112.919 47.141 113.238 46.6316 113.548 45.9424L115.316 41.7672H127.682L129.479 45.9424C129.769 46.6116 130.099 47.111 130.468 47.4307C130.838 47.7503 131.357 47.9201 132.037 47.9201C132.586 47.9201 133.035 47.7902 133.365 47.5405C133.705 47.2908 133.904 46.9312 133.974 46.4818C134.044 46.0223 133.954 45.5229 133.685 44.9735L124.136 23.9378ZM121.439 27.2839H121.509L126.093 38.1114H116.884L121.439 27.2839Z" fill="black"/>
<path d="M152.133 34.5554C153.192 34.1558 154.061 33.5565 154.74 32.7475C155.629 31.6887 156.069 30.4002 156.069 28.8619C156.069 27.4935 155.739 26.3249 155.08 25.336C154.421 24.3571 153.472 23.598 152.223 23.0686C150.975 22.5392 149.466 22.2795 147.689 22.2795H139.059C138.269 22.2795 137.66 22.4893 137.241 22.9088C136.821 23.3283 136.611 23.9376 136.611 24.7267V45.1831C136.611 45.9722 136.821 46.5815 137.241 47.001C137.66 47.4205 138.269 47.6303 139.059 47.6303H148.088C150.795 47.6303 152.913 47.011 154.431 45.7824C155.949 44.5438 156.718 42.8059 156.718 40.5485C156.718 38.8205 156.229 37.4221 155.24 36.3433C154.461 35.4843 153.412 34.895 152.133 34.5554ZM141.036 25.7755H146.899C148.478 25.7755 149.666 26.0851 150.445 26.6944C151.224 27.3037 151.614 28.2127 151.614 29.4113C151.614 30.6099 151.224 31.5189 150.445 32.1282C149.666 32.7375 148.488 33.0471 146.899 33.0471H141.036V25.7755ZM151.105 43.1954C150.335 43.8347 149.137 44.1443 147.509 44.1443H141.036V36.5231H147.509C149.137 36.5231 150.335 36.8327 151.105 37.462C151.874 38.0813 152.253 39.0402 152.253 40.3387C152.253 41.6372 151.874 42.5661 151.105 43.1954Z" fill="black"/>
<path d="M174.807 29.7708C174.088 29.7708 173.539 29.9605 173.149 30.3301C172.77 30.6997 172.57 31.269 172.57 32.0381V39.949C172.57 41.3174 172.19 42.4162 171.421 43.2352C170.652 44.0643 169.673 44.4738 168.475 44.4738C167.376 44.4738 166.567 44.1741 166.067 43.5748C165.568 42.9755 165.308 42.0566 165.308 40.808V32.0381C165.308 31.269 165.109 30.6997 164.719 30.3301C164.319 29.9605 163.77 29.7708 163.051 29.7708C162.332 29.7708 161.782 29.9605 161.393 30.3301C161.013 30.6997 160.813 31.269 160.813 32.0381V40.7381C160.813 42.3462 161.043 43.6847 161.513 44.7635C161.982 45.8422 162.691 46.6513 163.65 47.1906C164.609 47.73 165.818 47.9997 167.286 47.9997C168.754 47.9997 169.883 47.6501 170.902 46.9609C171.631 46.4615 172.22 45.8122 172.68 45.0132V45.6324C172.68 46.3716 172.87 46.9409 173.259 47.3405C173.639 47.74 174.178 47.9298 174.877 47.9298C176.336 47.9298 177.075 47.1607 177.075 45.6324V32.0381C177.075 31.269 176.875 30.6997 176.485 30.3301C176.086 29.9605 175.536 29.7708 174.817 29.7708H174.807Z" fill="black"/>
<path d="M195.943 30.8098C194.794 30.0707 193.436 29.6911 191.878 29.6911C190.419 29.6911 189.131 30.0507 188.032 30.7699C187.243 31.2793 186.654 31.9086 186.234 32.6577V24.2674C186.234 23.5282 186.034 22.9589 185.645 22.5793C185.255 22.1998 184.696 22 183.977 22C183.258 22 182.708 22.1898 182.319 22.5793C181.939 22.9589 181.739 23.5282 181.739 24.2674V45.6227C181.739 46.3619 181.929 46.9312 182.319 47.3308C182.698 47.7303 183.258 47.9201 183.977 47.9201C184.696 47.9201 185.215 47.7203 185.595 47.3308C185.974 46.9312 186.174 46.3619 186.174 45.6227V44.8736C186.584 45.6727 187.183 46.3419 187.992 46.8813C189.111 47.6204 190.409 48 191.898 48C193.386 48 194.784 47.6304 195.943 46.8813C197.102 46.1421 198.01 45.0734 198.66 43.695C199.309 42.3166 199.629 40.6884 199.629 38.8206C199.629 36.9527 199.309 35.3046 198.66 33.9462C198.01 32.5878 197.112 31.539 195.963 30.7998L195.943 30.8098ZM194.525 42.0069C194.155 42.8559 193.636 43.4952 192.956 43.9347C192.277 44.3742 191.508 44.5839 190.619 44.5839C189.281 44.5839 188.202 44.0945 187.383 43.1256C186.564 42.1567 186.164 40.7184 186.164 38.8306C186.164 37.562 186.354 36.5033 186.724 35.6443C187.093 34.7952 187.612 34.156 188.292 33.7365C188.961 33.3169 189.74 33.1072 190.629 33.1072C191.967 33.1072 193.046 33.5766 193.865 34.5255C194.684 35.4745 195.084 36.9028 195.084 38.8206C195.084 40.0891 194.894 41.1479 194.525 42.0069Z" fill="black"/>
<path d="M217.518 30.8098C216.369 30.0707 215.011 29.6911 213.453 29.6911C211.994 29.6911 210.706 30.0507 209.607 30.7699C208.818 31.2793 208.229 31.9086 207.809 32.6577V24.2674C207.809 23.5282 207.61 22.9589 207.22 22.5793C206.83 22.1998 206.271 22 205.552 22C204.833 22 204.283 22.1898 203.894 22.5793C203.514 22.9589 203.314 23.5282 203.314 24.2674V45.6227C203.314 46.3619 203.504 46.9312 203.894 47.3308C204.273 47.7303 204.833 47.9201 205.552 47.9201C206.271 47.9201 206.79 47.7203 207.17 47.3308C207.55 46.9312 207.749 46.3619 207.749 45.6227V44.8736C208.159 45.6727 208.758 46.3419 209.567 46.8813C210.686 47.6204 211.984 48 213.473 48C214.961 48 216.359 47.6304 217.518 46.8813C218.677 46.1421 219.586 45.0734 220.235 43.695C220.884 42.3166 221.204 40.6884 221.204 38.8206C221.204 36.9527 220.884 35.3046 220.235 33.9462C219.586 32.5878 218.687 31.539 217.538 30.7998L217.518 30.8098ZM216.1 42.0069C215.73 42.8559 215.211 43.4952 214.532 43.9347C213.852 44.3742 213.083 44.5839 212.194 44.5839C210.856 44.5839 209.777 44.0945 208.958 43.1256C208.139 42.1567 207.739 40.7184 207.739 38.8306C207.739 37.562 207.929 36.5033 208.299 35.6443C208.668 34.7952 209.188 34.156 209.867 33.7365C210.536 33.3169 211.315 33.1072 212.204 33.1072C213.543 33.1072 214.621 33.5766 215.44 34.5255C216.26 35.4745 216.659 36.9028 216.659 38.8206C216.659 40.0891 216.469 41.1479 216.1 42.0069Z" fill="black"/>
<path d="M233.13 44.2244C232.96 44.2443 232.79 44.2643 232.63 44.2743C232.461 44.2843 232.281 44.2943 232.091 44.2943C231.232 44.2943 230.563 44.0346 230.093 43.5052C229.624 42.9758 229.394 42.1667 229.394 41.058V24.2674C229.394 23.5282 229.194 22.9589 228.805 22.5793C228.415 22.1998 227.856 22 227.137 22C226.418 22 225.868 22.1898 225.479 22.5793C225.099 22.9589 224.899 23.5282 224.899 24.2674V41.2778C224.899 43.4852 225.399 45.1533 226.408 46.292C227.417 47.4307 228.915 48 230.902 48C231.162 48 231.432 47.99 231.692 47.96C231.951 47.9401 232.211 47.9101 232.451 47.8901C233 47.8202 233.4 47.6104 233.639 47.2808C233.879 46.9412 233.999 46.4818 233.999 45.8824C233.999 45.1833 233.939 44.7238 233.819 44.494C233.699 44.2643 233.47 44.1744 233.14 44.2244H233.13Z" fill="black"/>
<path d="M250.57 43.1656C250.19 43.1257 249.741 43.2555 249.242 43.5452C248.542 43.9248 247.813 44.1945 247.034 44.3543C246.255 44.5141 245.556 44.584 244.927 44.584C243.129 44.584 241.77 44.0946 240.841 43.1257C240.112 42.3566 239.683 41.2678 239.533 39.8694H250.39C250.94 39.8694 251.369 39.7596 251.669 39.5298C251.968 39.3001 252.118 38.9705 252.118 38.541C252.118 37.1726 251.928 35.944 251.559 34.8552C251.189 33.7665 250.65 32.8376 249.941 32.0684C249.232 31.2993 248.383 30.71 247.384 30.3105C246.385 29.9009 245.266 29.7012 244.018 29.7012C242.32 29.7012 240.801 30.0907 239.473 30.8698C238.144 31.6489 237.096 32.7177 236.346 34.0861C235.587 35.4545 235.218 37.0427 235.218 38.8706C235.218 40.6985 235.607 42.3566 236.386 43.725C237.166 45.0934 238.274 46.1422 239.713 46.8913C241.151 47.6305 242.869 48.0101 244.857 48.0101C245.796 48.0101 246.804 47.8802 247.893 47.6305C248.982 47.3808 249.951 46.9912 250.79 46.4618C251.219 46.2021 251.529 45.8825 251.709 45.5229C251.889 45.1633 251.958 44.8137 251.909 44.4641C251.859 44.1145 251.719 43.8249 251.499 43.5852C251.269 43.3454 250.97 43.2056 250.58 43.1756L250.57 43.1656ZM241.63 33.4568C242.34 32.9874 243.199 32.7576 244.197 32.7576C245.106 32.7576 245.865 32.9574 246.485 33.347C247.094 33.7465 247.564 34.3158 247.883 35.055C248.153 35.6743 248.303 36.4234 248.353 37.2824H239.533C239.623 36.6032 239.773 35.9739 240.012 35.4346C240.382 34.5855 240.921 33.9263 241.63 33.4568Z" fill="black"/>
</g>
<defs>
<clipPath id="clip0_2119_22253">
<rect width="70" height="70" fill="white"/>
</clipPath>
<clipPath id="clip1_2119_22253">
<rect width="169.115" height="26" fill="white" transform="translate(86 22)"/>
</clipPath>
</defs>
</svg>
