<svg width="30" height="30" viewBox="0 0 30 30" fill="none" xmlns="http://www.w3.org/2000/svg">
<mask id="mask0_1808_15930" style="mask-type:alpha" maskUnits="userSpaceOnUse" x="0" y="0" width="30" height="30">
<rect width="30" height="30" fill="#D9D9D9"/>
</mask>
<g mask="url(#mask0_1808_15930)">
<path d="M7.3125 21.375C8.375 20.5625 9.5625 19.9217 10.875 19.4525C12.1875 18.9842 13.5625 18.75 15 18.75C16.4375 18.75 17.8125 18.9842 19.125 19.4525C20.4375 19.9217 21.625 20.5625 22.6875 21.375C23.4167 20.5208 23.9846 19.5521 24.3913 18.4688C24.7971 17.3854 25 16.2292 25 15C25 12.2292 24.0263 9.86958 22.0788 7.92125C20.1304 5.97375 17.7708 5 15 5C12.2292 5 9.87 5.97375 7.9225 7.92125C5.97417 9.86958 5 12.2292 5 15C5 16.2292 5.20333 17.3854 5.61 18.4688C6.01583 19.5521 6.58333 20.5208 7.3125 21.375ZM15 16.25C13.7708 16.25 12.7342 15.8283 11.89 14.985C11.0467 14.1408 10.625 13.1042 10.625 11.875C10.625 10.6458 11.0467 9.60917 11.89 8.765C12.7342 7.92167 13.7708 7.5 15 7.5C16.2292 7.5 17.2658 7.92167 18.11 8.765C18.9533 9.60917 19.375 10.6458 19.375 11.875C19.375 13.1042 18.9533 14.1408 18.11 14.985C17.2658 15.8283 16.2292 16.25 15 16.25ZM15 27.5C13.2708 27.5 11.6458 27.1717 10.125 26.515C8.60417 25.8592 7.28125 24.9688 6.15625 23.8438C5.03125 22.7188 4.14083 21.3958 3.485 19.875C2.82833 18.3542 2.5 16.7292 2.5 15C2.5 13.2708 2.82833 11.6458 3.485 10.125C4.14083 8.60417 5.03125 7.28125 6.15625 6.15625C7.28125 5.03125 8.60417 4.14042 10.125 3.48375C11.6458 2.82792 13.2708 2.5 15 2.5C16.7292 2.5 18.3542 2.82792 19.875 3.48375C21.3958 4.14042 22.7188 5.03125 23.8438 6.15625C24.9688 7.28125 25.8592 8.60417 26.515 10.125C27.1717 11.6458 27.5 13.2708 27.5 15C27.5 16.7292 27.1717 18.3542 26.515 19.875C25.8592 21.3958 24.9688 22.7188 23.8438 23.8438C22.7188 24.9688 21.3958 25.8592 19.875 26.515C18.3542 27.1717 16.7292 27.5 15 27.5ZM15 25C16.1042 25 17.1458 24.8388 18.125 24.5163C19.1042 24.1929 20 23.7292 20.8125 23.125C20 22.5208 19.1042 22.0571 18.125 21.7337C17.1458 21.4112 16.1042 21.25 15 21.25C13.8958 21.25 12.8542 21.4112 11.875 21.7337C10.8958 22.0571 10 22.5208 9.1875 23.125C10 23.7292 10.8958 24.1929 11.875 24.5163C12.8542 24.8388 13.8958 25 15 25ZM15 13.75C15.5417 13.75 15.9896 13.5729 16.3438 13.2188C16.6979 12.8646 16.875 12.4167 16.875 11.875C16.875 11.3333 16.6979 10.8854 16.3438 10.5312C15.9896 10.1771 15.5417 10 15 10C14.4583 10 14.0104 10.1771 13.6562 10.5312C13.3021 10.8854 13.125 11.3333 13.125 11.875C13.125 12.4167 13.3021 12.8646 13.6562 13.2188C14.0104 13.5729 14.4583 13.75 15 13.75Z" fill="black"/>
</g>
</svg>
