<svg width="30" height="30" viewBox="0 0 30 30" fill="none" xmlns="http://www.w3.org/2000/svg">
<g clip-path="url(#clip0_813_12245)">
<mask id="mask0_813_12245" style="mask-type:alpha" maskUnits="userSpaceOnUse" x="3" y="3" width="24" height="24">
<rect x="3" y="3" width="24" height="24" fill="#D9D9D9"/>
</mask>
<g mask="url(#mask0_813_12245)">
<path d="M15 22C14.7167 22 14.4793 21.904 14.288 21.712C14.096 21.5207 14 21.2833 14 21V16H9C8.71667 16 8.479 15.904 8.287 15.712C8.09567 15.5207 8 15.2833 8 15C8 14.7167 8.09567 14.479 8.287 14.287C8.479 14.0957 8.71667 14 9 14H14V9C14 8.71667 14.096 8.479 14.288 8.287C14.4793 8.09567 14.7167 8 15 8C15.2833 8 15.521 8.09567 15.713 8.287C15.9043 8.479 16 8.71667 16 9V14H21C21.2833 14 21.5207 14.0957 21.712 14.287C21.904 14.479 22 14.7167 22 15C22 15.2833 21.904 15.5207 21.712 15.712C21.5207 15.904 21.2833 16 21 16H16V21C16 21.2833 15.9043 21.5207 15.713 21.712C15.521 21.904 15.2833 22 15 22Z" fill="#686868"/>
</g>
</g>
<defs>
<clipPath id="clip0_813_12245">
<rect x="3" y="3" width="24" height="24" rx="12" fill="white"/>
</clipPath>
</defs>
</svg>
