<svg width="30" height="30" viewBox="0 0 30 30" fill="none" xmlns="http://www.w3.org/2000/svg">
<mask id="mask0_237_641" style="mask-type:alpha" maskUnits="userSpaceOnUse" x="0" y="0" width="30" height="30">
<rect width="30" height="30" fill="#D9D9D9"/>
</mask>
<g mask="url(#mask0_237_641)">
<path d="M13.8437 18.125L10.4999 14.7812C9.97911 14.2604 9.85411 13.6667 10.1249 13C10.3958 12.3333 10.8958 12 11.6249 12H18.3749C19.1041 12 19.6041 12.3333 19.8749 13C20.1458 13.6667 20.0208 14.2604 19.4999 14.7812L16.1562 18.125C15.9895 18.2917 15.8074 18.4112 15.6099 18.4837C15.4116 18.5571 15.2083 18.5937 14.9999 18.5937C14.7916 18.5937 14.5883 18.5571 14.3899 18.4837C14.1924 18.4112 14.0104 18.2917 13.8437 18.125Z" fill="#535AF1"/>
</g>
</svg>
