<svg width="30" height="30" viewBox="0 0 30 30" fill="none" xmlns="http://www.w3.org/2000/svg">
<mask id="mask0_45165_10658" style="mask-type:alpha" maskUnits="userSpaceOnUse" x="0" y="0" width="30" height="30">
<rect width="30" height="30" fill="#D9D9D9"/>
</mask>
<g mask="url(#mask0_45165_10658)">
<path d="M14.1251 17.875L10.8751 14.625C10.4792 14.2292 10.3909 13.7762 10.6101 13.2662C10.8284 12.7554 11.2188 12.5 11.7813 12.5H18.2188C18.7813 12.5 19.1717 12.7554 19.3901 13.2662C19.6092 13.7762 19.5209 14.2292 19.1251 14.625L15.8751 17.875C15.7501 18 15.6147 18.0937 15.4688 18.1562C15.323 18.2187 15.1667 18.25 15.0001 18.25C14.8334 18.25 14.6772 18.2187 14.5313 18.1562C14.3855 18.0937 14.2501 18 14.1251 17.875Z" fill="black"/>
</g>
</svg>
