<svg width="24" height="25" viewBox="0 0 24 25" fill="none" xmlns="http://www.w3.org/2000/svg">
<mask id="mask0_43572_16084" style="mask-type:alpha" maskUnits="userSpaceOnUse" x="0" y="0" width="24" height="25">
<rect y="0.5" width="24" height="24" fill="#D9D9D9"/>
</mask>
<g mask="url(#mask0_43572_16084)">
<path d="M20.3 20.8L18 18.5H4C3.45 18.5 2.97933 18.3043 2.588 17.913C2.196 17.521 2 17.05 2 16.5V4.5C2 3.95 2.196 3.479 2.588 3.087C2.97933 2.69567 3.45 2.5 4 2.5H20C20.55 2.5 21.021 2.69567 21.413 3.087C21.8043 3.479 22 3.95 22 4.5V20.075C22 20.525 21.796 20.8373 21.388 21.012C20.9793 21.1873 20.6167 21.1167 20.3 20.8ZM4 4.5V16.5H18.825L20 17.675V4.5H4Z" fill="white"/>
</g>
</svg>
