<svg width="24" height="24" viewBox="0 0 24 24" fill="none" xmlns="http://www.w3.org/2000/svg">
<mask id="mask0_235_358" style="mask-type:alpha" maskUnits="userSpaceOnUse" x="0" y="0" width="24" height="24">
<rect width="24" height="24" fill="#D9D9D9"/>
</mask>
<g mask="url(#mask0_235_358)">
<path d="M4.8502 24.5C4.11686 24.5 3.49186 24.2416 2.9752 23.725C2.45853 23.2083 2.2002 22.5833 2.2002 21.85V7.54995C2.2002 6.81662 2.45853 6.19162 2.9752 5.67495C3.49186 5.15828 4.11686 4.89995 4.8502 4.89995H14.2752L11.6252 7.54995H4.8502V21.85H19.1502V15.075L21.8002 12.425V21.85C21.8002 22.5833 21.5419 23.2083 21.0252 23.725C20.5085 24.2416 19.8835 24.5 19.1502 24.5H4.8502ZM15.7502 6.22495L17.6502 8.12495L11.3252 14.4V15.375H12.2752L18.6002 9.07495L20.4502 10.95L14.1752 17.25C13.9252 17.5 13.6375 17.6916 13.3122 17.825C12.9875 17.9583 12.6502 18.025 12.3002 18.025H10.0002C9.63353 18.025 9.32086 17.8956 9.0622 17.637C8.8042 17.379 8.6752 17.0666 8.6752 16.7V14.4C8.6752 14.05 8.74186 13.7123 8.8752 13.387C9.00853 13.0623 9.2002 12.775 9.4502 12.525L15.7502 6.22495ZM20.4502 10.95L15.7502 6.22495L18.2252 3.74995C18.7585 3.21662 19.3919 2.94995 20.1252 2.94995C20.8585 2.94995 21.4835 3.21662 22.0002 3.74995L22.9502 4.72495C23.4669 5.25828 23.7252 5.88328 23.7252 6.59995C23.7252 7.31662 23.4669 7.93328 22.9502 8.44995L20.4502 10.95Z" fill="#535AF1"/>
</g>
</svg>
