<svg width="24" height="20" viewBox="0 0 24 20" fill="none" xmlns="http://www.w3.org/2000/svg">
<path d="M19.3002 12.2001C18.9335 12.2001 18.6212 12.0708 18.3632 11.8121C18.1045 11.5541 17.9752 11.2418 17.9752 10.8751V9.1501H16.2502C15.8835 9.1501 15.5709 9.02077 15.3122 8.7621C15.0542 8.5041 14.9252 8.19176 14.9252 7.8251C14.9252 7.45843 15.0542 7.14576 15.3122 6.8871C15.5709 6.6291 15.8835 6.5001 16.2502 6.5001H17.9752V4.7751C17.9752 4.40843 18.1045 4.09576 18.3632 3.8371C18.6212 3.5791 18.9335 3.4501 19.3002 3.4501C19.6669 3.4501 19.9795 3.5791 20.2382 3.8371C20.4962 4.09576 20.6252 4.40843 20.6252 4.7751V6.5001H22.3502C22.7169 6.5001 23.0295 6.6291 23.2882 6.8871C23.5462 7.14576 23.6752 7.45843 23.6752 7.8251C23.6752 8.19176 23.5462 8.5041 23.2882 8.7621C23.0295 9.02077 22.7169 9.1501 22.3502 9.1501H20.6252V10.8751C20.6252 11.2418 20.4962 11.5541 20.2382 11.8121C19.9795 12.0708 19.6669 12.2001 19.3002 12.2001ZM9.0752 9.7001C7.80853 9.7001 6.73353 9.25843 5.8502 8.3751C4.96686 7.49176 4.5252 6.41676 4.5252 5.1501C4.5252 3.88343 4.96686 2.80843 5.8502 1.9251C6.73353 1.04176 7.80853 0.600098 9.0752 0.600098C10.3419 0.600098 11.4169 1.04176 12.3002 1.9251C13.1835 2.80843 13.6252 3.88343 13.6252 5.1501C13.6252 6.41676 13.1835 7.49176 12.3002 8.3751C11.4169 9.25843 10.3419 9.7001 9.0752 9.7001ZM1.6252 19.5251C1.25853 19.5251 0.950195 19.4001 0.700195 19.1501C0.450195 18.9001 0.325195 18.5918 0.325195 18.2251V15.9501C0.325195 15.2668 0.487529 14.6501 0.812195 14.1001C1.13753 13.5501 1.5752 13.1334 2.1252 12.8501C3.2252 12.2834 4.35853 11.8584 5.5252 11.5751C6.69186 11.2918 7.8752 11.1501 9.0752 11.1501C10.2752 11.1501 11.4585 11.2918 12.6252 11.5751C13.7919 11.8584 14.9252 12.2834 16.0252 12.8501C16.5752 13.1334 17.0125 13.5501 17.3372 14.1001C17.6625 14.6501 17.8252 15.2668 17.8252 15.9501V18.2251C17.8252 18.5918 17.7002 18.9001 17.4502 19.1501C17.2002 19.4001 16.8919 19.5251 16.5252 19.5251H1.6252ZM2.9752 16.8751H15.1752V15.9501C15.1752 15.7668 15.1462 15.6168 15.0882 15.5001C15.0295 15.3834 14.9502 15.3001 14.8502 15.2501C13.9335 14.8001 12.9795 14.4461 11.9882 14.1881C10.9962 13.9294 10.0252 13.8001 9.0752 13.8001C8.1252 13.8001 7.1542 13.9294 6.1622 14.1881C5.17086 14.4461 4.21686 14.8001 3.3002 15.2501C3.2002 15.3001 3.12086 15.3834 3.0622 15.5001C3.0042 15.6168 2.9752 15.7668 2.9752 15.9501V16.8751ZM9.0752 7.0501C9.60853 7.0501 10.0585 6.86676 10.4252 6.5001C10.7919 6.13343 10.9752 5.68343 10.9752 5.1501C10.9752 4.61676 10.7919 4.16676 10.4252 3.8001C10.0585 3.43343 9.60853 3.2501 9.0752 3.2501C8.54186 3.2501 8.09186 3.43343 7.7252 3.8001C7.35853 4.16676 7.1752 4.61676 7.1752 5.1501C7.1752 5.68343 7.35853 6.13343 7.7252 6.5001C8.09186 6.86676 8.54186 7.0501 9.0752 7.0501Z" fill="#535AF1"/>
</svg>
