<svg width="41" height="40" viewBox="0 0 41 40" fill="none" xmlns="http://www.w3.org/2000/svg">
<mask id="mask0_48018_15920" style="mask-type:alpha" maskUnits="userSpaceOnUse" x="5" y="5" width="31" height="30">
<rect x="5.85742" y="5" width="30" height="30" fill="#D9D9D9"/>
</mask>
<g mask="url(#mask0_48018_15920)">
<path d="M11.3574 29.2813C10.9408 29.4479 10.5449 29.4113 10.1699 29.1713C9.79492 28.9321 9.60742 28.5833 9.60742 28.125V23.4688C9.60742 23.1771 9.69076 22.9167 9.85742 22.6875C10.0241 22.4583 10.2533 22.3125 10.5449 22.25L19.6074 20L10.5449 17.75C10.2533 17.6875 10.0241 17.5417 9.85742 17.3125C9.69076 17.0833 9.60742 16.8229 9.60742 16.5313V11.875C9.60742 11.4167 9.79492 11.0675 10.1699 10.8275C10.5449 10.5883 10.9408 10.5521 11.3574 10.7188L30.6074 18.8438C31.1283 19.0729 31.3887 19.4583 31.3887 20C31.3887 20.5417 31.1283 20.9271 30.6074 21.1563L11.3574 29.2813Z" fill="#444DF2"/>
</g>
</svg>
