<svg width="40" height="41" viewBox="0 0 40 41" fill="none" xmlns="http://www.w3.org/2000/svg">
<mask id="mask0_182_553" style="mask-type:alpha" maskUnits="userSpaceOnUse" x="0" y="0" width="40" height="41">
<rect y="0.5" width="40" height="40" fill="#D9D9D9"/>
</mask>
<g mask="url(#mask0_182_553)">
<path d="M4.24967 35.6086C3.55523 35.8864 2.89551 35.8253 2.27051 35.4253C1.64551 35.0267 1.33301 34.4454 1.33301 33.6815V25.9211C1.33301 25.435 1.4719 25.001 1.74967 24.619C2.02745 24.2371 2.4094 23.994 2.89551 23.8899L17.9997 20.1399L2.89551 16.3899C2.4094 16.2857 2.02745 16.0426 1.74967 15.6607C1.4719 15.2788 1.33301 14.8447 1.33301 14.3586V6.5982C1.33301 5.83431 1.64551 5.25237 2.27051 4.85237C2.89551 4.45376 3.55523 4.39334 4.24967 4.67112L36.333 18.2128C37.2011 18.5947 37.6351 19.2371 37.6351 20.1399C37.6351 21.0426 37.2011 21.685 36.333 22.0669L4.24967 35.6086Z" fill="white"/>
</g>
</svg>
