<svg width="24" height="24" viewBox="0 0 24 24" fill="none" xmlns="http://www.w3.org/2000/svg">
<mask id="mask0_237_637" style="mask-type:alpha" maskUnits="userSpaceOnUse" x="0" y="0" width="24" height="24">
<rect width="24" height="24" fill="#D9D9D9"/>
</mask>
<g mask="url(#mask0_237_637)">
<path d="M6 21C4.9 21 3.95833 20.6083 3.175 19.825C2.39167 19.0417 2 18.1 2 17C2 15.9 2.39167 14.9583 3.175 14.175C3.95833 13.3917 4.9 13 6 13C7.1 13 8.04167 13.3917 8.825 14.175C9.60833 14.9583 10 15.9 10 17C10 18.1 9.60833 19.0417 8.825 19.825C8.04167 20.6083 7.1 21 6 21ZM18 21C16.9 21 15.9583 20.6083 15.175 19.825C14.3917 19.0417 14 18.1 14 17C14 15.9 14.3917 14.9583 15.175 14.175C15.9583 13.3917 16.9 13 18 13C19.1 13 20.0417 13.3917 20.825 14.175C21.6083 14.9583 22 15.9 22 17C22 18.1 21.6083 19.0417 20.825 19.825C20.0417 20.6083 19.1 21 18 21ZM6 19C6.55 19 7.02067 18.8043 7.412 18.413C7.804 18.021 8 17.55 8 17C8 16.45 7.804 15.9793 7.412 15.588C7.02067 15.196 6.55 15 6 15C5.45 15 4.97933 15.196 4.588 15.588C4.196 15.9793 4 16.45 4 17C4 17.55 4.196 18.021 4.588 18.413C4.97933 18.8043 5.45 19 6 19ZM18 19C18.55 19 19.021 18.8043 19.413 18.413C19.8043 18.021 20 17.55 20 17C20 16.45 19.8043 15.9793 19.413 15.588C19.021 15.196 18.55 15 18 15C17.45 15 16.979 15.196 16.587 15.588C16.1957 15.9793 16 16.45 16 17C16 17.55 16.1957 18.021 16.587 18.413C16.979 18.8043 17.45 19 18 19ZM12 11C10.9 11 9.95833 10.6083 9.175 9.825C8.39167 9.04167 8 8.1 8 7C8 5.9 8.39167 4.95833 9.175 4.175C9.95833 3.39167 10.9 3 12 3C13.1 3 14.0417 3.39167 14.825 4.175C15.6083 4.95833 16 5.9 16 7C16 8.1 15.6083 9.04167 14.825 9.825C14.0417 10.6083 13.1 11 12 11ZM12 9C12.55 9 13.021 8.804 13.413 8.412C13.8043 8.02067 14 7.55 14 7C14 6.45 13.8043 5.97933 13.413 5.588C13.021 5.196 12.55 5 12 5C11.45 5 10.9793 5.196 10.588 5.588C10.196 5.97933 10 6.45 10 7C10 7.55 10.196 8.02067 10.588 8.412C10.9793 8.804 11.45 9 12 9Z" fill="#535AF1"/>
</g>
</svg>
