<svg width="20" height="18" viewBox="0 0 20 18" fill="none" xmlns="http://www.w3.org/2000/svg">
<path d="M4 18C2.9 18 1.95833 17.6083 1.175 16.825C0.391667 16.0417 0 15.1 0 14C0 12.9 0.391667 11.9583 1.175 11.175C1.95833 10.3917 2.9 10 4 10C5.1 10 6.04167 10.3917 6.825 11.175C7.60833 11.9583 8 12.9 8 14C8 15.1 7.60833 16.0417 6.825 16.825C6.04167 17.6083 5.1 18 4 18ZM16 18C14.9 18 13.9583 17.6083 13.175 16.825C12.3917 16.0417 12 15.1 12 14C12 12.9 12.3917 11.9583 13.175 11.175C13.9583 10.3917 14.9 10 16 10C17.1 10 18.0417 10.3917 18.825 11.175C19.6083 11.9583 20 12.9 20 14C20 15.1 19.6083 16.0417 18.825 16.825C18.0417 17.6083 17.1 18 16 18ZM4 16C4.55 16 5.02067 15.8043 5.412 15.413C5.804 15.021 6 14.55 6 14C6 13.45 5.804 12.9793 5.412 12.588C5.02067 12.196 4.55 12 4 12C3.45 12 2.97933 12.196 2.588 12.588C2.196 12.9793 2 13.45 2 14C2 14.55 2.196 15.021 2.588 15.413C2.97933 15.8043 3.45 16 4 16ZM16 16C16.55 16 17.021 15.8043 17.413 15.413C17.8043 15.021 18 14.55 18 14C18 13.45 17.8043 12.9793 17.413 12.588C17.021 12.196 16.55 12 16 12C15.45 12 14.979 12.196 14.587 12.588C14.1957 12.9793 14 13.45 14 14C14 14.55 14.1957 15.021 14.587 15.413C14.979 15.8043 15.45 16 16 16ZM10 8C8.9 8 7.95833 7.60833 7.175 6.825C6.39167 6.04167 6 5.1 6 4C6 2.9 6.39167 1.95833 7.175 1.175C7.95833 0.391667 8.9 0 10 0C11.1 0 12.0417 0.391667 12.825 1.175C13.6083 1.95833 14 2.9 14 4C14 5.1 13.6083 6.04167 12.825 6.825C12.0417 7.60833 11.1 8 10 8ZM10 6C10.55 6 11.021 5.804 11.413 5.412C11.8043 5.02067 12 4.55 12 4C12 3.45 11.8043 2.97933 11.413 2.588C11.021 2.196 10.55 2 10 2C9.45 2 8.97933 2.196 8.588 2.588C8.196 2.97933 8 3.45 8 4C8 4.55 8.196 5.02067 8.588 5.412C8.97933 5.804 9.45 6 10 6Z" fill="black"/>
</svg>
