<svg width="64" height="65" viewBox="0 0 64 65" fill="none" xmlns="http://www.w3.org/2000/svg">
<g clip-path="url(#clip0_43205_16393)">
<path d="M64 0.5H0V64.5H64V0.5Z" fill="#444DF2"/>
<path d="M51.1746 38.5288C51.789 39.9368 52.7746 41.1528 53.5298 42.484C54.285 43.8152 54.797 45.4152 54.3746 46.8872C54.7458 46.9768 55.0402 46.5544 55.181 46.196C56.0002 44.0072 55.117 40.436 54.3234 38.3112C53.3122 35.5848 51.1362 33.2296 51.021 30.324C50.0482 32.9096 50.0482 35.9816 51.1746 38.5288Z" fill="#797EF3"/>
<path d="M49.5614 9.93359C51.3022 12.0456 52.659 14.6312 52.6078 17.3704C52.5822 18.3304 52.3902 19.2648 52.1982 20.1992C51.8014 22.1192 51.4046 24.0264 51.0078 25.9464C50.9054 26.42 50.8158 26.8936 50.5598 27.3032C49.971 28.2632 48.627 28.5704 47.5774 28.1864C46.5278 27.8024 45.747 26.8424 45.3374 25.8056C44.6974 24.2184 44.7742 22.4008 45.2478 20.7624C45.7214 19.1112 46.5662 17.6008 47.4366 16.1288C48.0894 15.028 48.7806 13.9144 49.8046 13.1464L49.5614 9.93359Z" fill="#797EF3"/>
<path d="M39.5394 64.5H25.8178C25.805 64.5 25.805 64.5 25.7922 64.5C23.4754 64.3848 21.133 64.4616 18.8034 64.4872C18.3426 64.4872 17.8818 64.5 17.4082 64.5C17.4978 64.1928 17.5874 63.8984 17.6642 63.604C19.1234 58.548 19.8274 53.6456 20.0834 48.4616C20.1346 47.4632 20.1602 46.452 20.1858 45.4408C20.5314 45.5432 20.877 45.6328 21.2354 45.7224C21.3122 45.748 21.3762 45.7608 21.453 45.7736C22.0418 45.9144 22.6306 46.0424 23.2322 46.132C28.4546 47.028 33.8434 46.4648 39.1554 46.4008C41.2546 46.3752 40.2946 50.484 39.4626 53.6968C39.4626 53.7096 39.4498 53.7224 39.4498 53.7352C39.0786 55.1304 38.7458 56.3592 38.6946 56.9992C38.5026 59.5208 38.6946 62.132 39.5394 64.5Z" fill="#E8C5AA"/>
<path d="M44.224 11.7512C43.008 10.8808 41.5488 10.3304 40 9.79275C33.1136 7.39915 24.6144 8.11595 19.2512 13.4664C17.2032 15.5016 15.7312 18.0872 14.9504 20.8776C14.1056 23.8856 14.5408 26.548 14.7328 29.5816C15.0272 34.3944 15.7824 39.4888 18.9056 43.1624C24.192 49.3832 32.512 53.2872 40.6144 53.812C43.136 53.9784 45.9392 53.6456 48.1152 52.2888C49.4208 51.4696 50.496 50.2152 51.008 48.7432C51.3536 47.7448 51.2 46.6056 51.3792 45.556C51.7248 43.4824 52.4416 41.4984 52.6976 39.412C52.9664 37.2104 52.9152 34.9832 52.7232 32.7816C52.608 31.4248 52.5696 30.0296 52.2112 28.7112C51.8528 27.38 51.1744 26.1896 50.7648 24.8584C49.9456 22.1832 49.1776 19.252 47.9104 16.756C47.0144 15.0024 45.8368 12.8904 44.224 11.7512Z" fill="#F4D3B8"/>
<path d="M41.4507 30.5588C42.449 30.326 42.9394 28.7699 42.5461 27.0831C42.1527 25.3963 41.0246 24.2177 40.0263 24.4505C39.028 24.6832 38.5376 26.2393 38.9309 27.9261C39.3243 29.6129 40.4524 30.7915 41.4507 30.5588Z" fill="#1B1464"/>
<path d="M48.9099 27.3006C49.6946 27.1176 50.0824 25.9028 49.7765 24.5883C49.4706 23.2737 48.5848 22.356 47.8002 22.539C47.0155 22.722 46.6277 23.9368 46.9349 25.2513C47.2408 26.5659 48.1253 27.4836 48.9099 27.3006Z" fill="#1B1464"/>
<path d="M50.6725 32.3759C50.8658 32.6076 50.9054 33.0274 50.6277 33.7378C50.3666 34.406 49.9173 35.0818 49.5819 35.5707L50.7442 36.3656C51.0744 35.8831 51.612 35.0869 51.9384 34.2498C52.2494 33.4562 52.4798 32.34 51.7528 31.4709L50.6725 32.3759ZM47.9742 31.2904C48.5029 31.5477 49.189 31.6949 49.628 31.8268C50.1349 31.9778 50.4677 32.1365 50.6802 32.3836L51.7477 31.4658C51.2562 30.8936 50.5842 30.6428 50.0312 30.4776C49.4104 30.292 48.9829 30.2152 48.5899 30.0245L47.9742 31.2904ZM45.0251 27.4056C45.2811 29.1541 46.4651 30.5506 47.9717 31.2891L48.5912 30.0245C47.4354 29.4575 46.597 28.422 46.4178 27.2008L45.0251 27.4056ZM49.5819 35.5707C49.3618 35.892 49.445 36.3298 49.765 36.5487C50.085 36.7676 50.524 36.6856 50.7429 36.3656L49.5819 35.5707ZM51.2126 31.924L51.7528 31.4722C51.7502 31.4696 51.749 31.4671 51.7464 31.4658L51.2126 31.924ZM48.2814 30.6568L47.9717 31.2891C47.973 31.2891 47.973 31.2904 47.9742 31.2904L48.2814 30.6568ZM46.4178 27.2008C46.3614 26.8156 46.0043 26.5506 45.619 26.6069C45.2338 26.6632 44.9688 27.0203 45.0251 27.4056L46.4178 27.2008Z" fill="#1B1464"/>
<path d="M42.2914 42.0347C44.3727 41.8837 46.8943 41.684 48.7234 40.1429L47.8159 39.0664C46.3938 40.2645 44.3586 40.4744 42.1903 40.6306L42.2914 42.0347ZM38.9135 41.9426C40.0681 42.1986 41.247 42.1103 42.2914 42.0347L42.1903 40.6306C41.11 40.7087 40.1385 40.7727 39.2194 40.5691L38.9135 41.9426ZM48.1666 42.7682C45.2841 43.9586 41.6591 43.1125 39.5919 40.788L38.5398 41.7237C41.0038 44.4936 45.2636 45.4907 48.7042 44.0699L48.1666 42.7682ZM48.7222 40.1429C49.0191 39.892 49.0575 39.4479 48.8066 39.1509C48.5558 38.8539 48.1116 38.8155 47.8146 39.0664L48.7222 40.1429ZM39.0658 41.2552L39.2182 40.5679C38.9199 40.5013 38.6127 40.6357 38.4578 40.8981C38.303 41.1618 38.3362 41.4946 38.5385 41.7224L39.0658 41.2552ZM48.7042 44.0687C49.0639 43.9202 49.2342 43.508 49.0857 43.1496C48.9372 42.7899 48.525 42.6197 48.1666 42.7682L48.7042 44.0687Z" fill="#1B1464"/>
<path d="M36.7629 21.876C35.5942 22.411 34.4589 23.339 33.9226 24.6267L35.2218 25.1681C35.5814 24.3041 36.3917 23.5937 37.3478 23.1573L36.7629 21.876ZM41.3414 21.3141C39.7146 20.9889 38.2976 21.1784 36.7654 21.876L37.3478 23.1573C38.6304 22.5736 39.7478 22.4315 41.0662 22.6952L41.3414 21.3141ZM33.9226 24.6254C33.7728 24.9838 33.943 25.396 34.3014 25.5457C34.6598 25.6955 35.072 25.5253 35.2218 25.1669L33.9226 24.6254ZM37.056 22.516L36.7642 21.8747C36.7642 21.8747 36.7629 21.8747 36.7629 21.876L37.056 22.516ZM41.065 22.6939C41.4464 22.7707 41.8176 22.5224 41.8931 22.1422C41.9699 21.7608 41.7216 21.3896 41.3414 21.3141L41.065 22.6939Z" fill="#1B1464"/>
<path d="M46.1952 20.0328C46.4 20.706 46.4 20.706 46.3987 20.706C46.3987 20.706 46.3987 20.706 46.4 20.706C46.4013 20.706 46.4051 20.7048 46.409 20.7035C46.4179 20.7009 46.4346 20.6958 46.4563 20.6907C46.4998 20.6792 46.5651 20.6638 46.6496 20.6459C46.8186 20.61 47.0566 20.5704 47.3254 20.5524C47.8861 20.514 48.4736 20.5793 48.8998 20.8545L49.664 19.6718C48.8602 19.1534 47.9053 19.1022 47.232 19.1483C46.8838 19.1713 46.5792 19.2225 46.3629 19.2686C46.2541 19.2916 46.1658 19.3134 46.1018 19.3288C46.0698 19.3364 46.0454 19.3441 46.0262 19.3492C46.0173 19.3518 46.0096 19.3544 46.0045 19.3556C46.0019 19.3569 45.9994 19.3569 45.9968 19.3582C45.9955 19.3582 45.9955 19.3582 45.9942 19.3595H45.993C45.9904 19.3595 45.9904 19.3595 46.1952 20.0328ZM48.8986 20.8545C49.225 21.0657 49.6614 20.9723 49.8714 20.6446C50.0813 20.3169 49.9891 19.8817 49.6614 19.6718L48.8986 20.8545ZM45.9904 19.3595C45.6179 19.4721 45.408 19.8651 45.5206 20.2376C45.6333 20.61 46.0262 20.82 46.3987 20.7073L45.9904 19.3595Z" fill="#1B1464"/>
<path d="M39.3985 15.1176C39.6289 15.412 39.8721 15.7064 40.1153 15.988C41.8305 17.972 44.1345 17.8952 46.5921 18.1512C48.4225 18.3304 50.3809 18.8168 51.5073 20.276C52.4289 21.4792 52.5825 23.1304 52.3521 24.628C52.2625 25.2552 52.1089 25.8696 52.0449 26.4968C51.8401 28.5064 52.5825 30.5544 53.8881 32.0776C55.1937 33.6136 57.0497 34.6376 58.9953 35.1112C57.9713 34.1896 56.9345 33.2552 56.1665 32.0904C55.2961 30.7592 54.8225 29.1848 54.8353 27.5976C54.8481 25.972 55.3473 24.3848 55.6801 22.7976C56.4225 19.252 56.1921 15.54 55.1937 12.0712C54.3617 9.20403 52.9281 5.26163 50.2529 3.61043C48.0513 2.24083 45.6577 1.54963 43.0337 1.75443C40.8065 1.93363 38.5665 2.97043 37.2993 4.82643C35.1233 8.01363 37.2993 12.4168 39.3985 15.1176Z" fill="#797EF3"/>
<path d="M38.7202 9.38316C38.5282 9.52396 38.3362 9.65196 38.1442 9.77996C37.8882 9.94636 37.6322 10.1128 37.3762 10.2664C37.2098 10.3688 37.0434 10.4712 36.877 10.5736C34.3042 12.212 31.7186 13.8504 29.3762 15.8088C27.8914 17.0504 26.509 18.3944 25.1522 19.764C24.5378 20.3784 23.7442 20.9416 23.1938 21.5944C22.6562 22.2344 22.669 22.9128 22.5794 23.7448C22.5666 23.8728 22.5538 24.0136 22.5282 24.1416C22.0418 28.3272 21.5554 32.5128 21.0562 36.6856C20.6978 39.7064 21.005 42.6248 21.2098 45.5432C21.2098 45.5944 21.2226 45.6456 21.2226 45.6968C21.325 47.3096 21.4018 48.9224 21.3122 50.5736C21.2866 51.0472 21.2482 51.5208 21.1842 51.9944C20.9794 53.7608 20.7618 55.5144 20.557 57.2808C20.2882 59.5592 20.0066 61.8888 19.0466 63.9752C18.9698 64.1416 18.8802 64.3208 18.7906 64.4872H6.65619C6.36179 64.2312 6.09299 63.9752 5.90099 63.668C5.14579 62.4392 5.51699 60.212 5.97779 58.9576C6.47699 57.6392 7.34739 56.4872 7.94899 55.22C8.55059 53.94 8.84499 52.3784 8.16659 51.1496C7.87219 50.612 7.42419 50.1896 7.05299 49.7032C5.40179 47.4504 5.96499 44.3144 6.77139 41.6392C7.57779 38.964 8.56339 36.0712 7.56499 33.46C7.09139 32.2312 6.20819 31.1944 5.65779 29.9912C4.16019 26.6888 5.44019 22.7464 7.46259 19.7384C8.29459 18.4968 9.25459 17.3192 9.79219 15.924C10.381 14.4008 10.4194 12.724 10.6626 11.1112C10.9058 9.49836 11.4434 7.80876 12.7362 6.79756C13.7986 5.96556 15.1554 5.76076 16.397 5.31276C17.6642 4.85196 18.701 4.07116 19.8402 3.37996C22.4898 1.77996 25.5106 0.896763 28.6082 0.845563C30.8738 0.819963 33.1394 1.20396 35.2898 1.89516C36.6466 2.33036 37.4786 2.88076 38.2722 3.68716C38.6818 4.10956 39.0914 4.60876 39.5522 5.18476C39.8978 5.61996 40.2434 6.06796 40.3458 6.60556C40.5506 7.74476 39.6802 8.67916 38.7202 9.38316Z" fill="#797EF3"/>
<path d="M17.3056 26.3432C16.4864 25.3704 15.3472 24.7304 13.7856 24.692C11.4944 24.6408 9.29281 26.2152 8.47361 28.3528C7.14241 31.796 9.36961 36.0072 12.3776 37.7736C15.0528 39.348 18.1888 38.4264 18.9696 35.316C19.3152 33.9336 19.1744 32.4744 19.0464 31.0664C18.8672 29.364 18.3552 27.5976 17.3056 26.3432Z" fill="#F4D3B8"/>
<path d="M15.8722 31.7832C15.9656 31.0856 15.9644 31.0856 15.9644 31.0856C15.9644 31.0856 15.9644 31.0856 15.9631 31.0856H15.9618C15.9605 31.0856 15.9592 31.0856 15.958 31.0856C15.9541 31.0856 15.9503 31.0843 15.9452 31.0843C15.9349 31.083 15.9208 31.0817 15.9042 31.0792C15.8696 31.0753 15.8223 31.0702 15.7621 31.0664C15.6431 31.0574 15.4767 31.0472 15.2796 31.0459C14.8892 31.0433 14.3516 31.074 13.8076 31.2149C13.2687 31.3544 12.6632 31.618 12.2127 32.1275C11.7429 32.6574 11.5087 33.3768 11.5868 34.2766L12.9896 34.155C12.9397 33.5828 13.0895 33.2616 13.2674 33.0606C13.4645 32.8379 13.7717 32.6779 14.1608 32.578C14.5448 32.4782 14.9506 32.4526 15.2732 32.4539C15.4319 32.4552 15.5624 32.4628 15.6533 32.4692C15.6981 32.4731 15.7327 32.4756 15.7544 32.4782C15.766 32.4795 15.7736 32.4808 15.7775 32.4808C15.78 32.4808 15.7813 32.4808 15.7813 32.4808C15.7788 32.4808 15.7788 32.4808 15.8722 31.7832ZM11.3922 29.0952C11.4972 29.7915 11.4972 29.7915 11.4972 29.7915C11.4972 29.7915 11.4997 29.7915 11.5023 29.7902C11.5074 29.7889 11.5164 29.7889 11.5279 29.7864C11.5522 29.7838 11.5906 29.7787 11.6418 29.7736C11.7429 29.7633 11.8914 29.7531 12.0719 29.7492C12.4354 29.7416 12.909 29.7646 13.3762 29.8747C13.846 29.9848 14.2696 30.1742 14.582 30.4686C14.8789 30.7502 15.1196 31.1675 15.172 31.8344L16.5762 31.7269C16.4994 30.731 16.1167 29.9796 15.5496 29.4446C14.998 28.9236 14.317 28.6484 13.7 28.5025C13.0792 28.3566 12.4802 28.331 12.045 28.34C11.8248 28.3438 11.6418 28.3579 11.5112 28.3694C11.446 28.3758 11.3935 28.3822 11.3564 28.386C11.3372 28.3886 11.3231 28.3899 11.3116 28.3924C11.3064 28.3937 11.3013 28.3937 11.2975 28.3937C11.2962 28.3937 11.2936 28.3937 11.2936 28.395H11.2924C11.2924 28.395 11.2924 28.395 11.2911 28.395C11.2872 28.3988 11.2872 28.3988 11.3922 29.0952ZM11.5868 34.2766C11.62 34.6645 11.9618 34.9512 12.3496 34.9166C12.7375 34.8833 13.0242 34.5416 12.9896 34.1537L11.5868 34.2766ZM15.8722 31.7832L15.7788 32.4808C15.9887 32.5089 16.2012 32.4398 16.356 32.2939C16.5109 32.148 16.5903 31.9406 16.5736 31.7281L15.8722 31.7832ZM11.2872 28.3988C10.9032 28.4577 10.6383 28.8161 10.6972 29.2001C10.756 29.5841 11.1144 29.8491 11.4984 29.7902L11.2872 28.3988Z" fill="#EABC97"/>
<path d="M18.9825 18.0232C19.7633 15.8344 21.0689 13.7608 22.4001 11.892C23.6929 10.0616 25.4465 8.56399 27.4561 7.56559C29.3377 6.64399 31.5137 6.15759 33.5361 6.69519C36.8385 7.57839 38.8481 11.7 37.1969 14.8232C36.5441 16.0648 35.3025 16.8712 34.1505 17.652C30.4513 20.1864 26.8289 23.4376 25.8817 27.8152C25.2929 30.516 25.8177 33.3192 25.3825 36.0328C25.0369 38.1192 24.0641 39.8856 23.4497 41.844C22.7969 43.8664 23.1425 46.2472 23.7441 48.244C24.4225 50.484 25.5361 52.5448 26.6241 54.6184C27.4305 56.1544 28.2113 58.1 27.2129 59.5208C27.6993 58.2152 27.1617 56.7176 26.2913 55.6296C25.4209 54.5416 24.2561 53.7352 23.2321 52.788C20.8641 50.5736 19.3153 47.5144 18.8673 44.3144C18.6753 42.9832 18.5217 41.5496 18.4321 40.1928C18.3297 38.5672 19.0081 36.9544 19.1873 35.3416C19.5201 32.2952 18.0993 29.9528 17.8305 27.124C17.5489 24.1544 17.9713 20.8648 18.9825 18.0232Z" fill="#797EF3"/>
<path d="M38.8481 53.812C38.8481 53.108 38.8481 53.108 38.8481 53.108C38.8468 53.108 38.8455 53.108 38.8417 53.108C38.8353 53.108 38.8251 53.108 38.8097 53.108C38.7803 53.1067 38.7342 53.1055 38.6714 53.1029C38.5473 53.0978 38.3604 53.0863 38.1159 53.0619C37.6282 53.0159 36.9153 52.9211 36.0346 52.7317C34.2721 52.3528 31.8401 51.5912 29.1879 50.0655L28.4865 51.2866C31.2858 52.8968 33.8599 53.7045 35.739 54.109C36.6785 54.3112 37.4465 54.4136 37.9828 54.4648C38.2516 54.4904 38.4628 54.5032 38.6087 54.5096C38.6817 54.5135 38.7393 54.5147 38.779 54.516C38.7994 54.516 38.8148 54.5173 38.8263 54.5173C38.8314 54.5173 38.8366 54.5173 38.8404 54.5173C38.8417 54.5173 38.8442 54.5173 38.8442 54.5173H38.8455C38.8481 54.516 38.8481 54.516 38.8481 53.812ZM29.1892 50.0655C28.8526 49.8722 28.4212 49.9874 28.2279 50.3253C28.0346 50.6632 28.1498 51.0933 28.4878 51.2866L29.1892 50.0655ZM38.8481 54.516C39.2372 54.516 39.5521 54.2011 39.5521 53.812C39.5521 53.4229 39.2372 53.108 38.8481 53.108V54.516Z" fill="#1B1464"/>
</g>
<defs>
<clipPath id="clip0_43205_16393">
<rect y="0.5" width="64" height="64" rx="32" fill="white"/>
</clipPath>
</defs>
</svg>
