<svg width="64" height="65" viewBox="0 0 64 65" fill="none" xmlns="http://www.w3.org/2000/svg">
<g clip-path="url(#clip0_43205_16454)">
<path d="M64 0.5H0V64.5H64V0.5Z" fill="#797EF3"/>
<path d="M49.2798 29.7352C48.883 28.7368 48.8446 27.6232 48.8062 26.548C48.7678 25.2424 48.9726 23.86 49.6382 22.8232C50.1502 22.0168 50.9566 21.4152 52.1214 21.236C52.8894 21.1208 54.0414 21.172 54.5662 21.7992C55.1294 22.4648 55.3982 23.6808 55.4366 24.5256C55.4878 25.652 55.1678 26.74 54.8606 27.8024C54.515 28.9672 54.195 31.4248 52.7486 31.7192C51.2254 32.052 49.8174 31.1176 49.2798 29.7352Z" fill="#D9A48E"/>
<path d="M44.0703 64.5H15.5903C15.6927 64.0648 15.7951 63.6296 15.8975 63.1944C17.9327 54.4648 18.7263 46.0041 18.8415 36.8521C26.0479 39.5145 33.6255 38.3753 41.0623 38.2601C43.8271 38.2217 42.9055 41.3577 42.9311 44.2889C42.9695 47.9497 43.1103 51.5977 43.3279 55.2329C43.5199 58.3305 43.7631 61.428 44.0703 64.5Z" fill="#D9A48E"/>
<path d="M51.7506 18.0616C52.4802 21.5816 52.2754 25.2936 52.5186 29.0184C52.621 30.644 52.7746 32.2568 52.9922 33.8696C53.6706 38.836 54.9634 44.1608 52.7746 48.6664C51.1618 51.9816 47.8338 54.2344 44.2626 55.1816C41.677 55.8728 39.0146 55.8984 36.365 55.668C32.2562 55.3096 27.9426 54.2728 24.2306 52.2376C21.9522 50.996 19.9042 49.3704 18.2658 47.3224C16.1154 44.6088 15.5266 42.228 15.1426 38.9384C13.8498 27.892 7.23217 15.3096 19.4306 7.69356C28.3778 2.09996 43.2514 3.27756 49.4338 12.4424C50.6626 14.2344 51.3538 16.116 51.7506 18.0616Z" fill="#E5B69E"/>
<path d="M33.9527 33.0756C34.958 32.8751 35.4983 31.3357 35.1595 29.6371C34.8208 27.9386 33.7312 26.7242 32.7259 26.9247C31.7207 27.1252 31.1804 28.6647 31.5192 30.3632C31.8579 32.0617 32.9475 33.2761 33.9527 33.0756Z" fill="#1B1464"/>
<path d="M45.6764 29.8231C46.6816 29.6226 47.2219 28.0831 46.8832 26.3846C46.5444 24.686 45.4548 23.4716 44.4496 23.6721C43.4443 23.8726 42.904 25.4121 43.2428 27.1106C43.5816 28.8092 44.6711 30.0236 45.6764 29.8231Z" fill="#1B1464"/>
<path d="M29.3863 24.6843C29.9418 24.2504 30.8557 23.7934 31.8081 23.6053C32.7655 23.4171 33.6321 23.5221 34.2426 24.0213L35.1335 22.9307C34.0673 22.0603 32.7066 21.9938 31.5367 22.2242C30.3617 22.4558 29.2455 23.0088 28.521 23.5746L29.3863 24.6843ZM34.2426 24.0213C34.5434 24.267 34.9876 24.2222 35.2333 23.9214C35.4791 23.6206 35.4343 23.1765 35.1335 22.9307L34.2426 24.0213ZM28.521 23.5733C28.2138 23.8126 28.1601 24.2542 28.3994 24.5614C28.6388 24.8686 29.0804 24.9224 29.3876 24.683L28.521 23.5733Z" fill="#1B1464"/>
<path d="M41.0624 19.6488C41.4796 20.2158 41.4796 20.2158 41.4796 20.2158C41.4796 20.2158 41.4809 20.2145 41.4822 20.2145C41.4847 20.212 41.4899 20.2081 41.4988 20.203C41.5142 20.1915 41.5398 20.1748 41.5744 20.1518C41.6435 20.107 41.7472 20.0417 41.879 19.9688C42.1452 19.8216 42.5126 19.6475 42.9299 19.5297C43.7644 19.2942 44.6976 19.2993 45.4937 20.0558L46.464 19.0356C45.1724 17.8081 43.6492 17.8644 42.5472 18.1755C41.9968 18.3316 41.527 18.5544 41.198 18.7374C41.0316 18.8296 40.8985 18.9115 40.8051 18.9729C40.7577 19.0036 40.7206 19.0292 40.6937 19.0472C40.6809 19.0561 40.6694 19.0638 40.6617 19.0702C40.6579 19.0728 40.654 19.0753 40.6515 19.0779C40.6502 19.0792 40.6489 19.0792 40.6476 19.0804L40.6464 19.0817C40.6451 19.0817 40.6451 19.0817 41.0624 19.6488ZM45.4924 20.0571C45.774 20.3246 46.2195 20.3144 46.4883 20.0315C46.7558 19.7499 46.7456 19.3044 46.4627 19.0356L45.4924 20.0571ZM40.6451 19.0817C40.3328 19.3121 40.2662 19.7537 40.4966 20.066C40.727 20.3784 41.1686 20.4449 41.4809 20.2145L40.6451 19.0817Z" fill="#1B1464"/>
<path d="M34.5421 43.9868C36.9779 45.7621 40.2023 46.3791 43.1207 45.6226L42.7674 44.2594C40.2586 44.9109 37.4669 44.3759 35.3715 42.8488L34.5421 43.9868ZM43.1207 45.6226C43.497 45.5253 43.7235 45.1413 43.625 44.765C43.5277 44.3887 43.1437 44.1621 42.7674 44.2607L43.1207 45.6226ZM35.3715 42.8501C35.0579 42.621 34.6163 42.6901 34.3885 43.005C34.1607 43.3199 34.2285 43.7602 34.5434 43.988L35.3715 42.8501Z" fill="#1B1464"/>
<path d="M41.6244 28.3387C41.4938 27.7064 41.5335 27.0485 41.586 26.2766L40.1818 26.1819C40.1319 26.9205 40.0692 27.7729 40.2458 28.6254L41.6244 28.3387ZM43.6685 31.9726C42.6701 30.9371 41.9098 29.7339 41.6244 28.34L40.2445 28.6229C40.5991 30.3509 41.5297 31.7845 42.6548 32.9518L43.6685 31.9726ZM44.2458 36.4885C44.8909 35.6923 45.0727 34.8424 44.8845 34.0155C44.7066 33.2334 44.2138 32.5461 43.6711 31.9765L42.6509 32.9467C43.1194 33.4382 43.4151 33.9041 43.5111 34.3278C43.5981 34.7067 43.5431 35.1189 43.1514 35.6014L44.2458 36.4885ZM38.5908 37.2974C39.4036 37.6354 40.4455 37.8465 41.4541 37.7838C42.4602 37.7211 43.529 37.3742 44.2458 36.4898L43.1527 35.6027C42.77 36.075 42.1415 36.3297 41.3658 36.3784C40.5927 36.427 39.7658 36.2606 39.1309 35.997L38.5908 37.2974ZM41.586 26.2753C41.6129 25.8875 41.3197 25.5521 40.9306 25.5253C40.5428 25.4984 40.2074 25.7915 40.1805 26.1806L41.586 26.2753ZM40.9345 28.4808L41.6244 28.34V28.3387L40.9345 28.4808ZM43.1617 32.4616L43.6711 31.9765C43.6698 31.9752 43.6685 31.9739 43.6673 31.9726L43.1617 32.4616ZM39.1309 35.997C38.7725 35.8472 38.3604 36.0174 38.2106 36.3771C38.0609 36.7355 38.2311 37.1477 38.5908 37.2974L39.1309 35.997Z" fill="#1B1464"/>
<path d="M44.1474 45.172C44.1474 45.1976 44.1346 45.2232 44.1346 45.2488C44.0578 45.748 43.8018 46.196 43.4818 46.58C42.3938 47.8856 40.589 48.4872 38.9122 48.2824C37.2354 48.0776 35.6866 47.1304 34.573 45.8504C34.0098 45.1976 33.549 44.4424 33.421 43.5976C33.3698 43.252 33.3954 42.8552 33.6642 42.6376C33.7666 42.548 33.8946 42.4968 34.0226 42.4584C35.5586 41.9592 37.197 42.5992 38.7586 42.996C39.6802 43.2264 40.6274 43.38 41.5746 43.4824C42.829 43.6232 44.3778 43.3544 44.1474 45.172ZM52.5314 29.0184C52.365 29.4536 52.2626 29.9016 52.173 30.3496C51.8018 32.3208 51.981 34.3816 51.3666 36.3144C50.8162 38.0424 49.3698 39.604 48.0002 40.7432C47.693 40.9992 47.3602 41.2552 46.9762 41.396C45.5554 41.9208 44.1602 41.1272 42.765 41.1016C41.8178 41.076 40.8706 41.204 39.9234 41.1528C37.8882 41.0376 35.9298 40.0648 33.8818 40.1544C31.9106 40.244 30.349 41.5496 28.5058 42.1256C27.2898 42.5096 25.933 42.292 24.8066 41.6904C23.8338 41.1784 22.797 40.3592 22.2722 39.3736C21.6706 38.2344 21.5426 36.7624 21.0946 35.5464C20.8258 34.804 19.3666 31.7064 19.021 33.972C18.8034 35.3672 18.7394 36.7368 18.2274 38.0808C17.933 38.8616 17.5362 39.604 17.2802 40.3976C15.5266 45.9016 19.8274 49.844 24.2178 52.2504C27.9298 54.2728 32.2434 55.3224 36.3522 55.6808C38.989 55.9112 41.6642 55.8728 44.2498 55.1944C47.8082 54.2472 51.149 51.9816 52.7618 48.6792C54.9506 44.1736 53.6578 38.8488 52.9794 33.8824C52.7874 32.2568 52.6338 30.644 52.5314 29.0184Z" fill="#1B1464"/>
<path d="M17.2288 27.764C16.2944 26.9064 15.0784 26.42 13.5168 26.5992C11.2384 26.8424 9.26724 28.6984 8.72964 30.9256C7.85924 34.5096 10.624 38.388 13.8368 39.7576C16.6912 40.9736 19.6864 39.6552 20.0448 36.4552C20.2112 35.0344 19.8785 33.6136 19.5585 32.2312C19.1745 30.5544 18.432 28.852 17.2288 27.764Z" fill="#E5B69E"/>
<path d="M16.4991 33.332C16.4991 32.628 16.4991 32.628 16.4991 32.628C16.4991 32.628 16.4991 32.628 16.4978 32.628H16.4965C16.4953 32.628 16.494 32.628 16.4927 32.628C16.4889 32.628 16.485 32.628 16.4799 32.628C16.4697 32.628 16.4556 32.628 16.439 32.6292C16.4044 32.6305 16.3557 32.6318 16.2969 32.6344C16.1778 32.6408 16.0114 32.6536 15.8156 32.6779C15.4278 32.7278 14.8978 32.8276 14.3769 33.0388C13.8597 33.2475 13.2953 33.588 12.9138 34.1524C12.517 34.74 12.3775 35.4824 12.5733 36.3643L13.9481 36.0584C13.8239 35.5003 13.9301 35.1636 14.0799 34.9396C14.2463 34.6939 14.5305 34.4942 14.9042 34.3432C15.2729 34.1934 15.6722 34.114 15.9922 34.0744C16.1497 34.0539 16.2815 34.0449 16.3711 34.0398C16.4159 34.0372 16.4505 34.036 16.4735 34.036C16.485 34.036 16.4927 34.036 16.4965 34.036C16.4991 34.036 16.5004 34.036 16.5004 34.036C16.4991 34.036 16.4991 34.036 16.4991 33.332ZM11.7119 31.2584C11.9077 31.9342 11.9078 31.9342 11.9078 31.9342C11.9078 31.9342 11.9103 31.9342 11.9129 31.9329C11.918 31.9316 11.9257 31.9291 11.9385 31.9265C11.9628 31.9201 11.9999 31.9112 12.0498 31.8996C12.1497 31.8766 12.2956 31.8472 12.4735 31.819C12.8345 31.764 13.3055 31.7243 13.7842 31.7716C14.2655 31.819 14.7084 31.9508 15.0553 32.2017C15.3855 32.4398 15.6761 32.8212 15.813 33.4753L17.1916 33.1886C16.9881 32.2107 16.5119 31.5169 15.8809 31.06C15.2665 30.6158 14.5561 30.4328 13.9238 30.37C13.2902 30.3073 12.6924 30.3611 12.261 30.4264C12.0434 30.4596 11.863 30.4968 11.735 30.5262C11.671 30.5416 11.6197 30.5544 11.5826 30.5633C11.5647 30.5684 11.5494 30.5723 11.5391 30.5748C11.534 30.5761 11.5289 30.5774 11.5263 30.5787C11.525 30.5787 11.5238 30.58 11.5225 30.58H11.5212C11.5212 30.58 11.5212 30.58 11.5199 30.58C11.5161 30.5825 11.5161 30.5825 11.7119 31.2584ZM12.5733 36.3643C12.6578 36.7444 13.0342 36.9825 13.413 36.8993C13.7919 36.8161 14.0313 36.4385 13.9481 36.0596L12.5733 36.3643ZM16.4991 33.332V34.036C16.7116 34.036 16.9113 33.94 17.0457 33.7761C17.1788 33.6123 17.2326 33.396 17.189 33.1886L16.4991 33.332ZM11.5161 30.5825C11.1423 30.6913 10.9273 31.0817 11.0361 31.4542C11.1449 31.828 11.5353 32.043 11.9078 31.9342L11.5161 30.5825Z" fill="#DB9F7F"/>
<path d="M15.6159 15.3352C14.7967 15.3352 14.7967 16.6152 15.6159 16.6152C16.4479 16.6152 16.4479 15.3352 15.6159 15.3352Z" fill="#DB9F7F"/>
<path d="M16.7042 13.0824C15.885 13.0824 15.885 14.3624 16.7042 14.3624C17.5234 14.3624 17.5234 13.0824 16.7042 13.0824Z" fill="#DB9F7F"/>
<path d="M18.0353 15.2456C17.2161 15.2456 17.2161 16.5256 18.0353 16.5256C18.8545 16.5256 18.8545 15.2456 18.0353 15.2456Z" fill="#DB9F7F"/>
</g>
<defs>
<clipPath id="clip0_43205_16454">
<rect y="0.5" width="64" height="64" rx="32" fill="white"/>
</clipPath>
</defs>
</svg>
