<svg width="64" height="65" viewBox="0 0 64 65" fill="none" xmlns="http://www.w3.org/2000/svg">
<g clip-path="url(#clip0_43205_16472)">
<path d="M64 0.5H0V64.5H64V0.5Z" fill="#797EF3"/>
<path d="M39.6684 64.5H16.165C16.7346 62.4123 17.1967 60.5627 17.2825 60.1749C18.0313 56.7432 18.5049 53.2616 18.6943 49.7685C18.7929 47.9573 18.8159 46.1423 18.7622 44.3298C18.725 43.0741 18.1529 41.0671 18.7225 39.8703C19.813 37.5752 24.8831 40.2696 27.1346 40.5627C31.0015 41.0671 34.9337 40.8303 38.8134 40.5947C38.2233 48.5627 38.5126 56.5832 39.6684 64.5Z" fill="#797EF3"/>
<path d="M56.0191 36.3259C56.3814 37.9656 57.0777 39.5554 57.0905 41.236C56.7423 41.3205 56.4185 41.0427 56.1791 40.7765C53.6486 37.9566 52.8447 34.0206 52.3135 30.269C51.9859 27.9522 51.1449 24.1045 52.2431 21.9106C52.8025 20.7931 54.8275 19.4939 55.9846 20.5691C57.3529 21.8427 56.2495 26.333 56.0678 27.9675C55.7593 30.74 55.4086 33.5662 56.0191 36.3259Z" fill="#444DF2"/>
<path d="M36.0603 4.78029C34.9813 4.16717 33.8613 3.62573 32.7003 3.17005C27.7429 1.22701 21.9201 1.02989 17.2251 3.54509C13.0945 5.75821 10.2017 9.85293 8.64398 14.2728C7.08622 18.6926 6.74318 23.4452 6.71886 28.13C6.68814 33.826 7.10926 39.5182 7.8107 45.1694C8.2587 48.7841 9.37742 58.0769 14.2145 58.2689C20.1525 58.5032 26.1121 58.2088 31.9989 57.3947C37.0126 56.7022 45.2737 60.5192 49.2801 57.076C51.6725 55.019 50.7995 47.627 51.8261 44.6433C53.0741 41.0184 54.0046 37.2488 54.116 33.4164C54.2632 28.3643 52.9486 23.2763 50.372 18.9281C49.0011 16.6152 47.2897 14.5185 45.4645 12.5448C42.6958 9.55212 39.5893 6.78477 36.0603 4.78029Z" fill="#444DF2"/>
<path d="M39.6684 64.5H16.165C16.7346 62.4123 17.1967 60.5627 17.2825 60.1749C18.0313 56.7432 18.5049 53.2616 18.6943 49.7685C18.7929 47.9573 18.8159 46.1423 18.7622 44.3298C18.725 43.0741 18.1529 41.0671 18.7225 39.8703C19.813 37.5752 24.8831 40.2696 27.1346 40.5627C31.0015 41.0671 34.9337 40.8303 38.8134 40.5947C38.2233 48.5627 38.5126 56.5832 39.6684 64.5Z" fill="#E8AE8E"/>
<path d="M19.0372 48.3964C22.9489 52.5974 28.3351 55.261 34.1169 56.7535C39.6209 58.1743 46.1015 58.342 50.3153 54.5263C53.8558 51.3212 54.8209 46.191 55.1844 41.4281C55.6196 35.7218 55.4814 29.9874 55.2318 24.271C55.123 21.7852 54.9911 19.2828 54.3947 16.8687C53.4923 13.2182 51.2382 8.36695 47.6695 6.74647C43.3585 4.78935 38.1937 4.27351 33.5294 4.80087C30.154 5.18231 26.7198 5.58679 23.6171 6.96535C20.8292 8.20439 17.2158 9.78519 15.7271 12.5513C13.8391 16.0585 12.7652 20.1135 12.3083 24.0534C11.6145 30.0284 12.4247 36.1954 14.7479 41.7506C15.8116 44.3017 17.2747 46.5046 19.0372 48.3964Z" fill="#F4C19F"/>
<path d="M15.7543 25.0696C14.9363 24.1032 13.7933 23.4594 12.233 23.4235C9.94051 23.371 7.74531 24.9506 6.91587 27.0894C5.58083 30.5339 7.81314 34.7374 10.8224 36.5141C13.4951 38.091 16.6323 37.172 17.4119 34.0526C17.7575 32.669 17.6218 31.2174 17.4823 29.7979C17.3159 28.0878 16.8039 26.3112 15.7543 25.0696Z" fill="#F4C19F"/>
<path d="M10.7301 33.6354C10.3691 33.6354 10.0619 33.3589 10.0299 32.9928C9.92624 31.7999 10.3934 31.0831 10.803 30.6914C11.5493 29.9784 12.6386 29.7928 13.4283 29.7634C13.3093 29.4933 13.1352 29.268 12.9035 29.0837C11.8514 28.2466 9.95952 28.5052 9.94032 28.5077C9.55632 28.5666 9.19665 28.3016 9.13905 27.9176C9.08017 27.5336 9.34513 27.174 9.72913 27.1164C9.83025 27.101 12.2341 26.7541 13.779 27.9816C14.5189 28.5704 14.9362 29.3999 15.0168 30.4456C15.0334 30.6568 14.9528 30.8655 14.7992 31.0114C14.6443 31.1573 14.4331 31.2252 14.2219 31.1983C13.7534 31.1381 12.3979 31.1125 11.7733 31.7116C11.4994 31.9752 11.388 32.3541 11.4328 32.8712C11.4661 33.2591 11.1794 33.5996 10.7928 33.6341C10.771 33.6341 10.7506 33.6354 10.7301 33.6354Z" fill="#EAAA7F"/>
<path d="M27.3203 21.8325C27.3164 21.8376 27.3139 21.8427 27.31 21.8478C26.8876 22.4661 25.3939 22.4046 24.7487 22.4866C24.2124 22.5544 16.6067 23.2277 16.5708 22.8706C16.8614 25.8338 17.1519 28.7982 17.4425 31.7614C17.8111 35.5272 18.1247 39.572 16.2457 42.8565C16.9331 37.8478 16.0319 32.6331 13.7036 28.1454C12.9625 26.7157 12.0678 25.3256 11.7529 23.7461C11.4828 22.3867 11.6633 20.9787 11.95 19.6232C12.6668 16.2466 14.0505 13.0133 15.9987 10.164C19.5763 4.93392 26.0684 2.26384 32.2316 1.82608C34.9708 1.63152 37.7254 1.65968 40.4595 1.91056C44.3763 2.27024 48.8371 3.54512 51.4227 6.70544C52.9446 8.56656 53.9187 10.804 54.8736 13.0107C55.0911 13.5138 58.1196 22.7797 57.3529 22.612C55.7939 22.2728 54.2361 21.9336 52.6771 21.5944C51.0041 21.2309 49.3299 20.8661 47.6326 20.6421C44.1651 20.1851 40.6591 20.3259 37.1852 20.6306C36.2751 20.7099 30.6009 22.0066 30.1478 20.6997C29.3977 18.5365 28.6463 16.3733 27.8963 14.2101C27.7734 13.8568 27.2575 13.4805 27.1385 13.835C27.1411 15.3211 28.0447 20.7125 27.3203 21.8325Z" fill="#444DF2"/>
<path d="M40.4901 40.6344C40.1023 40.6344 39.7874 40.3208 39.7861 39.933C39.7849 39.5438 40.0985 39.2277 40.4863 39.2264C40.5324 39.2264 45.0303 39.1701 45.2863 36.6766C45.3874 35.6859 45.0905 35.3416 44.5516 34.7182C43.6658 33.6942 42.4537 32.2914 42.5343 27.7499C42.5407 27.3659 42.8543 27.0587 43.2383 27.0587C43.2421 27.0587 43.2473 27.0587 43.2511 27.0587C43.6402 27.0651 43.95 27.3864 43.9423 27.7755C43.8706 31.7794 44.8383 32.8981 45.6165 33.7979C46.2233 34.4994 46.8505 35.2264 46.6866 36.8213C46.3013 40.5691 40.7295 40.6344 40.4927 40.6357C40.4927 40.6344 40.4914 40.6344 40.4901 40.6344Z" fill="#1B1464"/>
<path d="M34.8367 33.8345C35.8631 33.7671 36.6033 32.3131 36.49 30.5869C36.3767 28.8607 35.4528 27.516 34.4264 27.5833C33.4 27.6507 32.6597 29.1047 32.773 30.8309C32.8863 32.5571 33.8103 33.9019 34.8367 33.8345Z" fill="#1B1464"/>
<path d="M49.0584 33.4351C50.0848 33.3677 50.825 31.9137 50.7117 30.1875C50.5984 28.4613 49.6745 27.1165 48.648 27.1839C47.6216 27.2513 46.8814 28.7053 46.9947 30.4315C47.108 32.1577 48.0319 33.5025 49.0584 33.4351Z" fill="#1B1464"/>
<path d="M52.5622 26.8693C52.4176 26.8693 52.2729 26.8258 52.1475 26.7336C49.0742 24.4872 46.3107 25.1861 46.1942 25.2168C45.8192 25.3166 45.4339 25.0952 45.3328 24.7202C45.2317 24.3464 45.4505 23.9611 45.823 23.8574C45.9651 23.819 49.3328 22.932 52.9782 25.5957C53.2918 25.8248 53.3609 26.2651 53.1318 26.58C52.9936 26.7694 52.7798 26.8693 52.5622 26.8693Z" fill="#1B1464"/>
<path d="M27.5739 27.6335C27.4638 27.6335 27.3511 27.6079 27.2462 27.5516C26.9019 27.3698 26.77 26.9448 26.9518 26.6005C27.0222 26.4674 28.7463 23.3583 36.0513 23.3583C36.1153 23.3583 36.1793 23.3583 36.2446 23.3596C36.6337 23.3621 36.946 23.6796 36.9435 24.0687C36.9409 24.4552 36.626 24.7676 36.2395 24.7676C36.2382 24.7676 36.2356 24.7676 36.2343 24.7676C29.7217 24.7202 28.21 27.2316 28.1972 27.2572C28.0718 27.4965 27.8273 27.6335 27.5739 27.6335Z" fill="#1B1464"/>
<path d="M39.3192 46.607C33.7474 46.607 30.0405 42.095 29.8741 41.8902C29.6296 41.5881 29.677 41.1439 29.9804 40.9007C30.2824 40.6563 30.7253 40.7036 30.9698 41.007C31.0274 41.0774 34.9378 45.7993 40.406 45.1337C40.7925 45.0876 41.1432 45.3615 41.1893 45.7481C41.2367 46.1334 40.9615 46.4854 40.5749 46.5314C40.1474 46.5826 39.7276 46.607 39.3192 46.607Z" fill="#1B1464"/>
<path d="M38.5035 58.228C30.2974 58.228 21.9186 51.9522 21.5666 51.6846C21.2568 51.4504 21.1954 51.0088 21.4309 50.699C21.6651 50.3893 22.1067 50.3278 22.4178 50.5621C22.501 50.6248 30.7762 56.8187 38.5048 56.8187C38.8939 56.8187 39.2088 57.1336 39.2088 57.5227C39.2088 57.9118 38.8926 58.228 38.5035 58.228Z" fill="#1B1464"/>
</g>
<defs>
<clipPath id="clip0_43205_16472">
<rect y="0.5" width="64" height="64" rx="32" fill="white"/>
</clipPath>
</defs>
</svg>
