<svg width="64" height="65" viewBox="0 0 64 65" fill="none" xmlns="http://www.w3.org/2000/svg">
<g clip-path="url(#clip0_43205_16412)">
<path d="M64 0.5H0V64.5H64V0.5Z" fill="#ADB0D9"/>
<path d="M47.8592 17.8824C48.1024 16.9864 48.7552 16.1288 48.5888 15.22C48.4608 14.516 48.1664 13.7864 48.256 13.0568C48.32 12.5192 49.1264 10.9064 49.8304 11.0984C50.112 11.1752 50.2528 11.4952 50.3424 11.764C50.8544 13.236 51.264 14.4904 51.4304 16.0648C51.5968 17.652 51.6352 19.252 51.5712 20.852C51.5328 21.8376 51.4432 22.836 51.0464 23.732C50.7008 24.5256 50.112 25.2168 49.3952 25.6904C49.1904 25.2424 48.7552 24.9608 48.4352 24.5896C47.9232 24.0136 47.68 23.2584 47.5392 22.5032C47.5392 20.9032 47.4368 19.4696 47.8592 17.8824Z" fill="#444DF2"/>
<path d="M46.3745 32.5C46.1185 31.4504 46.2209 30.3496 46.3233 29.2744C46.4513 27.9816 46.8353 26.6376 47.6289 25.6904C48.2433 24.9608 49.1137 24.4744 50.2913 24.4488C51.0721 24.436 52.1985 24.628 52.6465 25.332C53.1073 26.0744 53.2225 27.316 53.1585 28.148C53.0689 29.2744 52.6081 30.3112 52.1601 31.3224C51.6737 32.436 51.0337 34.8296 49.5489 34.932C48.0001 35.0472 46.7329 33.9464 46.3745 32.5Z" fill="#F5B18F"/>
<path d="M38.1314 64.5H9.65137C9.75377 64.0648 9.85616 63.6296 9.95856 63.1944C11.9938 54.4648 12.7874 46.0041 12.9026 36.8521C20.109 39.5145 27.6866 38.3753 35.1234 38.2601C37.8882 38.2217 36.9666 41.3577 36.9922 44.2889C37.0306 47.9497 37.1714 51.5977 37.389 55.2329C37.5682 58.3305 37.8242 61.428 38.1314 64.5Z" fill="#F5B18F"/>
<path d="M50.675 21.236C50.3806 24.8968 49.9326 28.5576 49.6894 32.2312C49.587 33.8568 49.523 35.4696 49.523 37.0952C49.5358 42.1128 50.1374 47.5528 47.3726 51.7384C45.3374 54.8104 41.7406 56.6152 38.0798 57.0888C35.4302 57.4344 32.7806 57.1144 30.195 56.5384C26.163 55.6552 22.0286 54.0424 18.611 51.5464C16.5118 50.0104 14.6942 48.1416 13.3502 45.8888C12.0574 43.7384 11.2894 41.3192 10.8926 38.8232C10.6878 37.5048 10.5854 36.1608 10.5726 34.8168C10.547 32.3208 10.803 29.8248 11.1614 27.3544C11.6734 23.8216 12.1726 20.084 14.1822 17.0376C16.0638 14.196 18.8542 11.9816 21.9646 10.612C27.1614 8.3336 33.0366 8.18 38.707 8.5256C40.7166 8.6536 42.739 8.8328 44.6462 9.4728C46.5534 10.1128 48.3454 11.252 49.4334 12.9288C50.9822 15.3224 50.9054 18.3944 50.675 21.236Z" fill="#FEC29B"/>
<path d="M30.883 33.8393C31.9059 33.7721 32.6432 32.3166 32.5297 30.5883C32.4163 28.86 31.4951 27.5133 30.4722 27.5805C29.4493 27.6476 28.7121 29.1031 28.8255 30.8314C28.939 32.5598 29.8601 33.9064 30.883 33.8393Z" fill="#1B1464"/>
<path d="M42.9294 32.1624C43.9523 32.0953 44.6896 30.6398 44.5761 28.9114C44.4627 27.1831 43.5415 25.8364 42.5186 25.9036C41.4957 25.9707 40.7585 27.4262 40.8719 29.1546C40.9854 30.8829 41.9065 32.2295 42.9294 32.1624Z" fill="#1B1464"/>
<path d="M27.4458 24.9122C28.05 24.5525 29.0138 24.2158 29.9815 24.1544C30.9543 24.093 31.7953 24.3131 32.329 24.8891L33.362 23.9317C32.425 22.9205 31.0823 22.6734 29.8919 22.749C28.6964 22.8245 27.5162 23.2315 26.7252 23.7026L27.4458 24.9122ZM32.329 24.8891C32.594 25.1746 33.0394 25.1912 33.3236 24.9262C33.609 24.6613 33.6257 24.2158 33.3607 23.9317L32.329 24.8891ZM26.7239 23.7038C26.3898 23.9035 26.281 24.3349 26.4794 24.669C26.6791 25.003 27.1105 25.1118 27.4445 24.9134L26.7239 23.7038Z" fill="#1B1464"/>
<path d="M42.6495 23.3864C42.9913 24.0021 42.99 24.0021 42.99 24.0021C42.99 24.0021 42.9913 24.0021 42.9926 24.0008C42.9951 23.9995 43.0015 23.9957 43.0105 23.9919C43.0271 23.9829 43.0553 23.9688 43.0924 23.9509C43.1666 23.9151 43.278 23.8651 43.4175 23.8101C43.7004 23.6987 44.087 23.5746 44.5158 23.5119C45.3734 23.3864 46.3001 23.5119 46.9938 24.3682L48.087 23.4811C46.9631 22.0962 45.445 21.9541 44.3122 22.1192C43.7465 22.2024 43.2511 22.3624 42.9017 22.5007C42.725 22.5698 42.5817 22.6351 42.4818 22.6837C42.4306 22.708 42.391 22.7285 42.3628 22.7439C42.3487 22.7515 42.3372 22.7579 42.3282 22.7618C42.3244 22.7643 42.3206 22.7656 42.318 22.7682C42.3167 22.7695 42.3154 22.7695 42.3142 22.7707C42.3142 22.7707 42.3129 22.7707 42.3129 22.772C42.309 22.7707 42.3078 22.7707 42.6495 23.3864ZM46.9926 24.3682C47.237 24.6703 47.6812 24.7163 47.9833 24.4719C48.2854 24.2274 48.3314 23.7832 48.087 23.4811L46.9926 24.3682ZM42.3078 22.7707C41.9673 22.9589 41.8444 23.3877 42.0338 23.7282C42.222 24.0687 42.6508 24.1915 42.9913 24.0021L42.3078 22.7707Z" fill="#1B1464"/>
<path d="M30.0287 44.7214C32.2047 46.8014 35.333 47.8292 38.3167 47.4708L38.149 46.0731C35.5775 46.3816 32.869 45.4894 31.0002 43.7025L30.0287 44.7214ZM38.3167 47.4708C38.7032 47.4248 38.9784 47.074 38.9323 46.6875C38.8863 46.3009 38.5355 46.0257 38.149 46.0718L38.3167 47.4708ZM31.0015 43.7025C30.7199 43.4337 30.2744 43.444 30.0056 43.7256C29.7368 44.0072 29.7471 44.4526 30.0287 44.7214L31.0015 43.7025Z" fill="#1B1464"/>
<path d="M50.5473 13.9016C49.4849 17.0888 44.5569 17.6392 41.7409 17.9464C37.4529 18.42 33.6385 17.46 29.5169 16.5C28.9793 16.372 22.0289 14.6696 22.0289 14.6696C21.6705 18.228 20.8641 21.3768 18.7009 24.2312C17.7665 25.46 18.5857 26.996 18.4449 28.6088C18.2785 30.6696 18.2145 33.1784 17.5745 35.1496C17.4977 35.4056 17.2545 35.6232 16.9857 35.5848C16.6145 35.5336 16.4993 35.0856 16.3585 34.74C16.0385 33.9336 15.1297 33.204 14.2337 33.588C13.3889 33.9592 12.9665 35.2776 12.5313 36.0072C12.1217 36.6984 11.4817 37.2872 11.2513 38.0552C11.1745 38.3112 11.1489 38.58 11.0337 38.8232C10.9185 39.0664 10.6881 39.284 10.4193 39.284C10.2273 39.284 10.0481 39.156 9.90731 39.028C8.51211 37.8248 8.2817 36.2376 7.8081 34.5992C7.2705 32.6792 7.0529 30.6952 6.8609 28.724C6.7457 27.444 6.6433 26.1512 6.4769 24.8712C6.3361 23.7576 6.0289 22.6568 6.0161 21.5304C5.9649 17.8952 6.72011 14.2088 8.49931 11.06C10.8289 6.96403 15.5777 4.80083 19.8401 3.67443C26.8545 1.83123 33.8561 2.84243 40.6785 5.01843C43.4305 5.90163 51.8529 10.0232 50.5473 13.9016Z" fill="#444DF2"/>
<path d="M40.2818 33.3358C39.7186 32.8238 39.3192 32.5333 39.021 32.1403C38.7778 31.8178 38.6421 31.4632 38.7368 30.8859L37.3468 30.6581C37.1855 31.6424 37.4402 32.3822 37.8972 32.9877C38.3004 33.5214 38.9109 33.9925 39.3346 34.3778L40.2818 33.3358ZM41.4978 36.1058C41.5298 35.0498 41.0472 34.0232 40.2792 33.3333L39.3384 34.3803C39.8248 34.8168 40.109 35.4542 40.0911 36.0622L41.4978 36.1058ZM34.797 38.6005C35.9311 39.2571 37.4927 39.627 38.838 39.3595C39.524 39.2238 40.1858 38.9141 40.685 38.3547C41.1893 37.7902 41.4709 37.0325 41.4965 36.1032L40.0885 36.0635C40.0693 36.7214 39.8786 37.1426 39.6328 37.4178C39.3832 37.6981 39.0223 37.8875 38.5615 37.9784C37.6156 38.1666 36.3996 37.9029 35.4984 37.3806L34.797 38.6005ZM38.7368 30.8859C38.7996 30.5019 38.5397 30.1397 38.1557 30.077C37.7717 30.0142 37.4095 30.2741 37.3468 30.6581L38.7368 30.8859ZM39.8082 33.8568L39.3346 34.3778C39.3359 34.379 39.3372 34.3803 39.3384 34.3803L39.8082 33.8568ZM40.7938 36.084L40.0898 36.0622V36.0635L40.7938 36.084ZM35.501 37.3819C35.1644 37.1874 34.7343 37.3026 34.5384 37.6392C34.3439 37.9758 34.4591 38.4059 34.7957 38.6018L35.501 37.3819Z" fill="#1B1464"/>
<path d="M14.8608 26.3432C14.0416 25.3704 12.9024 24.7304 11.3408 24.692C9.04959 24.6408 6.84799 26.2152 6.02879 28.3528C4.69759 31.796 6.92479 36.0072 9.93279 37.7736C12.608 39.348 15.744 38.4264 16.5248 35.316C16.8704 33.9336 16.7296 32.4744 16.6016 31.0664C16.4224 29.364 15.9104 27.5976 14.8608 26.3432Z" fill="#FEC29B"/>
<path d="M13.4142 31.7832C13.5076 31.0856 13.5064 31.0856 13.5064 31.0856C13.5064 31.0856 13.5063 31.0856 13.5051 31.0856H13.5038C13.5025 31.0856 13.5012 31.0856 13.4999 31.0856C13.4961 31.0856 13.4923 31.0843 13.4871 31.0843C13.4769 31.083 13.4628 31.0817 13.4462 31.0792C13.4116 31.0753 13.3643 31.0702 13.3041 31.0664C13.1851 31.0574 13.0187 31.0472 12.8215 31.0459C12.4311 31.0433 11.8935 31.074 11.3495 31.2149C10.8107 31.3544 10.2052 31.618 9.75467 32.1275C9.28491 32.6574 9.05067 33.3768 9.12875 34.2766L10.5316 34.155C10.4817 33.5828 10.6315 33.2616 10.8094 33.0606C11.0065 32.8379 11.3137 32.6779 11.7028 32.578C12.0868 32.4782 12.4926 32.4526 12.8151 32.4539C12.9739 32.4552 13.1044 32.4628 13.1953 32.4692C13.2401 32.4731 13.2747 32.4756 13.2964 32.4782C13.3079 32.4795 13.3156 32.4808 13.3195 32.4808C13.322 32.4808 13.3233 32.4808 13.3233 32.4808C13.3208 32.4808 13.3207 32.4808 13.4142 31.7832ZM8.93419 29.0952C9.03915 29.7915 9.03915 29.7915 9.03915 29.7915C9.03915 29.7915 9.0417 29.7915 9.04426 29.7902C9.04938 29.7889 9.05835 29.7889 9.06987 29.7864C9.09419 29.7838 9.13259 29.7787 9.18379 29.7736C9.28491 29.7633 9.43339 29.7531 9.61387 29.7492C9.97739 29.7416 10.451 29.7646 10.9182 29.8747C11.3879 29.9848 11.8116 30.1742 12.1239 30.4686C12.4209 30.7502 12.6616 31.1675 12.714 31.8344L14.1182 31.7269C14.0414 30.731 13.6587 29.9796 13.0916 29.4446C12.54 28.9236 11.859 28.6484 11.242 28.5025C10.6212 28.3566 10.0222 28.331 9.58699 28.34C9.36683 28.3438 9.18379 28.3579 9.05323 28.3694C8.98795 28.3758 8.93547 28.3822 8.89835 28.386C8.87915 28.3886 8.86507 28.3899 8.85355 28.3924C8.84843 28.3937 8.84331 28.3937 8.83947 28.3937C8.83819 28.3937 8.83563 28.3937 8.83563 28.395H8.83435C8.83435 28.395 8.83435 28.395 8.83307 28.395C8.82923 28.3988 8.82923 28.3988 8.93419 29.0952ZM9.12875 34.2766C9.16203 34.6645 9.50379 34.9512 9.89163 34.9166C10.2795 34.8833 10.5662 34.5416 10.5316 34.1537L9.12875 34.2766ZM13.4142 31.7832L13.3207 32.4808C13.5307 32.5089 13.7432 32.4398 13.898 32.2939C14.0529 32.148 14.1323 31.9406 14.1156 31.7281L13.4142 31.7832ZM8.82923 28.3988C8.44523 28.4577 8.18027 28.8161 8.23915 29.2001C8.29803 29.5841 8.65643 29.8491 9.04043 29.7902L8.82923 28.3988Z" fill="#F4AC7D"/>
<path d="M36.6399 56.3093C31.3382 56.5461 25.0508 54.9167 20.6655 51.9855L19.8835 53.1554C24.535 56.2658 31.1244 57.9644 36.7027 57.7148L36.6399 56.3093ZM20.6668 51.9855C20.343 51.7692 19.9065 51.8562 19.6902 52.18C19.4739 52.5039 19.5609 52.9404 19.8847 53.1567L20.6668 51.9855ZM36.7039 57.7148C37.0918 57.6968 37.3926 57.3679 37.3759 56.98C37.3593 56.5922 37.0291 56.2914 36.6412 56.308L36.7039 57.7148Z" fill="#1B1464"/>
</g>
<defs>
<clipPath id="clip0_43205_16412">
<rect y="0.5" width="64" height="64" rx="32" fill="white"/>
</clipPath>
</defs>
</svg>
