<svg width="64" height="65" viewBox="0 0 64 65" fill="none" xmlns="http://www.w3.org/2000/svg">
<g clip-path="url(#clip0_43205_16498)">
<path d="M64 0.501465H0V64.5H64V0.501465Z" fill="#444DF2"/>
<path d="M37.6514 53.7099C37.2073 57.2746 36.781 60.8969 36.6389 64.5H6.76758C7.16054 63.8972 7.62646 63.2597 8.1487 62.5647C10.7125 59.1587 12.79 55.3879 14.3093 51.4047C15.0684 49.4143 15.6892 47.3689 16.1589 45.2902C16.4866 43.8477 17.5797 40.7156 17.0895 39.2936C17.3698 40.1076 17.7653 40.8603 18.2505 41.5553C19.7852 43.753 22.2185 45.3542 24.7477 46.3654C28.077 47.6953 31.6687 48.2086 35.1145 49.198C35.8351 49.4053 36.5852 49.6562 37.0882 50.213C37.9049 51.1192 37.8025 52.499 37.6514 53.7099Z" fill="#444DF2"/>
<path d="M37.6514 53.7099C37.2073 57.2746 36.781 60.8969 36.6389 64.5H6.76758C7.16054 63.8972 7.62646 63.2597 8.1487 62.5647C10.7125 59.1587 12.79 55.3879 14.3093 51.4047C15.0684 49.4143 15.6892 47.3689 16.1589 45.2902C16.4866 43.8477 17.5797 40.7156 17.0895 39.2936C17.3698 40.1076 17.7653 40.8603 18.2505 41.5553C19.7852 43.753 22.2185 45.3542 24.7477 46.3654C28.077 47.6953 31.6687 48.2086 35.1145 49.198C35.8351 49.4053 36.5852 49.6562 37.0882 50.213C37.9049 51.1192 37.8025 52.499 37.6514 53.7099Z" fill="#EAAA7F"/>
<path d="M13.5514 23.8008C13.5105 21.0002 13.8074 18.1638 15.1015 15.6487C17.321 11.3313 22.1902 8.65493 27.1374 7.71799C32.0858 6.78105 37.1738 7.32888 42.1569 7.91766C45.1508 8.27222 49.6154 8.81236 51.2218 11.5553C53.3454 15.1777 53.5514 20.4063 53.9738 24.46C54.3962 28.5137 54.9121 32.5571 55.3166 36.6133C55.6711 40.1704 55.5342 43.9463 54.0954 47.328C52.3764 51.3701 48.6132 54.6571 44.1511 55.7438C37.8036 57.2887 29.1354 55.2779 25.051 50.4613C22.0519 46.9248 18.6906 43.0695 16.7054 38.9198C14.6638 34.6524 13.833 29.9268 13.6001 25.2497C13.5758 24.7685 13.5578 24.2846 13.5514 23.8008Z" fill="#F7C9A4"/>
<path d="M18.1131 41.1111C17.203 41.2135 16.3096 41.1265 15.4917 40.7015C14.4907 40.1818 13.7931 39.2359 13.1518 38.3092C9.55888 33.1241 6.81328 26.8868 6.24752 20.5458C6.0312 18.1151 6.59824 15.5002 8.30576 13.7556C8.74096 13.3114 9.24528 12.9261 9.59088 12.409C10.0466 11.7281 10.1822 10.8897 10.4741 10.123C11.4354 7.59251 13.9826 5.80567 16.4376 4.66778C27.7336 -0.567303 41.6587 -1.3532 52.3058 5.10169C53.2094 5.64951 54.1029 6.51861 54.7275 7.36979C57.3515 10.9473 54.7928 15.9379 51.5224 17.904C46.8696 20.702 42.0261 21.8591 36.595 21.2319C32.0357 20.7045 27.6606 19.1814 23.3278 17.6672C25.0213 21.8079 24.9573 26.4836 23.3931 30.6486C22.6674 32.5827 22.8466 33.6374 22.8274 35.6533C22.8158 36.827 22.8619 39.5905 21.4808 40.1383C20.4094 40.5633 19.2485 40.9844 18.1131 41.1111Z" fill="#1B1464"/>
<path d="M19.3766 28.7479C22.807 31.1273 23.8643 37.0638 23.9514 40.9524C23.9552 41.1341 23.9578 41.3236 24.0384 41.4874C24.2982 42.0237 20.6362 42.2106 20.3392 42.2132C18.8941 42.2272 17.4477 42.0749 16.0371 41.7575C14.5062 41.4132 14.0403 41.01 13.1302 39.6929C12.3661 38.587 11.7683 37.3608 11.4458 36.0539C10.9222 33.933 11.1693 31.5779 12.3635 29.7501C12.759 29.1447 13.2595 28.5968 13.8765 28.2205C15.5405 27.2081 17.7754 27.6369 19.3766 28.7479Z" fill="#F7C9A4"/>
<path d="M22.0261 41.2096C19.0885 43.2077 15.4277 42.0275 14.3896 41.1482C12.8779 39.8669 11.9128 37.9559 11.4443 36.0552C10.9208 33.9343 11.1678 31.5791 12.3621 29.7513C12.7576 29.1459 13.2581 28.5981 13.875 28.2218C15.539 27.208 17.7739 27.6381 19.3765 28.7478C21.1262 29.9612 22.3243 31.9388 22.5905 34.052" fill="#F7C9A4"/>
<path d="M40.6116 34.0242C41.5534 33.9624 42.2325 32.6279 42.1285 31.0435C42.0245 29.4591 41.1768 28.2248 40.235 28.2866C39.2932 28.3484 38.6141 29.683 38.7181 31.2673C38.8221 32.8517 39.6698 34.086 40.6116 34.0242Z" fill="#1B1464"/>
<path d="M50.6111 30.9546C51.5529 30.8928 52.232 29.5583 52.128 27.9739C52.024 26.3895 51.1763 25.1552 50.2345 25.2171C49.2927 25.2789 48.6136 26.6134 48.7176 28.1978C48.8216 29.7821 49.6694 31.0164 50.6111 30.9546Z" fill="#1B1464"/>
<path d="M46.7481 42.2271C45.317 42.2271 43.886 41.8035 42.9426 41.4515C42.6085 41.326 42.4383 40.9548 42.5637 40.6195C42.6892 40.2854 43.0617 40.1152 43.3957 40.2406C44.4812 40.6464 47.1794 41.4758 48.7781 40.4185C48.9061 40.3341 48.9458 40.288 48.9573 40.2713C48.9612 40.2099 48.9125 40.0473 48.8908 39.9757C48.4837 38.6227 47.9692 37.2775 47.4725 35.977C46.7071 33.9739 45.9161 31.9016 45.4693 29.7077C45.3977 29.3583 45.6242 29.0166 45.9737 28.9449C46.3231 28.8732 46.6649 29.0998 46.7365 29.4492C47.1628 31.5394 47.9346 33.5605 48.6809 35.5163C49.1865 36.8385 49.7087 38.2067 50.1298 39.6032C50.2041 39.8477 50.3269 40.256 50.1848 40.6809C50.0479 41.0918 49.724 41.3427 49.4924 41.4963C48.677 42.0339 47.7132 42.2271 46.7481 42.2271Z" fill="#1B1464"/>
<path d="M33.765 30.925C33.4527 30.925 33.1775 30.6972 33.1276 30.3785C32.6937 27.6099 34.4089 24.6686 37.0329 23.6843C37.367 23.5588 37.7394 23.7278 37.8649 24.0618C37.9903 24.3959 37.8213 24.7684 37.4873 24.8938C35.4162 25.6708 34.062 27.9926 34.405 30.1775C34.4601 30.5295 34.2194 30.861 33.8661 30.9161C33.8316 30.9225 33.7983 30.925 33.765 30.925Z" fill="#1B1464"/>
<path d="M52.4327 23.2261C52.1716 23.2261 51.9258 23.0661 51.8285 22.8075C51.6839 22.4222 51.3485 22.101 50.9108 21.9256C50.473 21.7502 50.0084 21.7515 49.6372 21.9282C49.3159 22.083 48.9293 21.9461 48.7757 21.6248C48.6209 21.3035 48.7578 20.917 49.0791 20.7621C49.7754 20.428 50.6189 20.4152 51.3921 20.725C52.1652 21.0347 52.7655 21.6274 53.0381 22.3506C53.1636 22.6846 52.9959 23.0571 52.6618 23.1838C52.5863 23.212 52.5082 23.2261 52.4327 23.2261Z" fill="#1B1464"/>
<path d="M44.1228 48.9074C42.4882 48.9074 40.8524 48.4453 39.5071 47.5276C39.2127 47.3266 39.1359 46.9247 39.3381 46.629C39.5391 46.3346 39.941 46.2578 40.2367 46.4588C42.4127 47.9436 45.4975 48.0114 47.7375 46.6213C48.0409 46.4332 48.4389 46.5266 48.6271 46.83C48.8153 47.1333 48.7218 47.5314 48.4185 47.7196C47.141 48.5132 45.6319 48.9074 44.1228 48.9074Z" fill="#1B1464"/>
<path d="M36.8321 57.1978C36.7924 57.1978 36.7527 57.194 36.7118 57.1863C31.7646 56.2558 26.8007 53.2337 22.7367 48.6771C22.4986 48.4108 22.523 48.0025 22.7892 47.7644C23.0554 47.5264 23.4638 47.5507 23.7018 47.8169C27.5777 52.1611 32.283 55.0385 36.9511 55.9153C37.3018 55.9818 37.5322 56.3185 37.467 56.6692C37.4081 56.9815 37.1367 57.1978 36.8321 57.1978Z" fill="#1B1464"/>
<path d="M15.8565 37.8024C15.525 37.8024 15.2421 37.549 15.2139 37.2123C15.1192 36.1167 15.5467 35.4588 15.923 35.0991C16.6078 34.445 17.6075 34.2735 18.3333 34.2466C18.2245 33.9996 18.0658 33.7935 17.8546 33.6258C16.8818 32.8489 15.1474 33.0921 15.1307 33.0947C14.7787 33.1459 14.4498 32.9027 14.3973 32.5507C14.3448 32.1987 14.5867 31.8697 14.9387 31.816C15.0322 31.8019 17.2389 31.4832 18.6571 32.6108C19.3368 33.151 19.7195 33.9126 19.7925 34.8725C19.8078 35.0671 19.7336 35.2578 19.5928 35.3922C19.4507 35.5266 19.2562 35.588 19.0629 35.5637C18.6328 35.5087 17.3886 35.4844 16.8152 36.0347C16.563 36.2767 16.4606 36.6248 16.5029 37.0997C16.5336 37.4555 16.2712 37.7691 15.9154 37.7998C15.8949 37.8011 15.8757 37.8024 15.8565 37.8024Z" fill="#EAAA7F"/>
</g>
<defs>
<clipPath id="clip0_43205_16498">
<rect y="0.5" width="64" height="64" rx="32" fill="white"/>
</clipPath>
</defs>
</svg>
