<svg width="64" height="65" viewBox="0 0 64 65" fill="none" xmlns="http://www.w3.org/2000/svg">
<g clip-path="url(#clip0_43205_16430)">
<path d="M64 0.5H0V64.5H64V0.5Z" fill="#ADB0D9"/>
<path d="M39.2843 64.5H10.8018C10.9029 64.1992 11.0066 63.8997 11.1077 63.6002C13.1403 57.5778 13.9326 51.7474 14.0491 45.4344C21.2606 47.27 28.8344 46.4828 36.275 46.406C39.0437 46.3778 38.1131 48.5449 38.149 50.5609C38.1925 53.0812 38.323 55.6002 38.5406 58.1116C38.725 60.2479 38.9733 62.3791 39.2843 64.5Z" fill="#ADB0D9"/>
<path d="M39.2843 64.5H10.8018C10.9029 64.1992 11.0066 63.8997 11.1077 63.6002C13.1403 57.5778 13.9326 51.7474 14.0491 45.4344C21.2606 47.27 28.8344 46.4828 36.275 46.406C39.0437 46.3778 38.1131 48.5449 38.149 50.5609C38.1925 53.0812 38.323 55.6002 38.5406 58.1116C38.725 60.2479 38.9733 62.3791 39.2843 64.5Z" fill="#E8AE8E"/>
<path d="M19.0847 50.589C19.1308 50.644 19.1781 50.6991 19.2242 50.7528C19.8181 51.4517 20.4159 52.1544 21.1148 52.7496C24.7589 55.8498 30.4306 56.2056 34.9196 57.0811C37.646 57.6123 40.3749 57.7032 43.0617 56.8802C46.1593 55.9304 48.9381 53.8363 50.4946 50.9947C52.4325 47.4543 52.3545 43.197 52.2265 39.1624C52.1535 36.8725 52.0805 34.5839 52.0076 32.2939C51.9615 30.8578 51.9167 29.4203 51.9897 27.9855C52.1689 24.4488 53.093 20.8213 52.3301 17.2962C51.6965 14.3701 49.2492 11.316 46.5177 10.0757C42.2066 8.11858 37.0418 7.60274 32.3775 8.1301C29.0021 8.51154 25.5679 8.91602 22.4652 10.2946C19.6773 11.5336 16.0639 13.1144 14.5753 15.8805C12.6873 19.3877 11.6133 23.4427 11.1564 27.3826C10.7788 30.6389 10.8466 33.9477 11.3625 37.1861C11.8501 40.2491 12.6655 43.0357 14.6905 45.4178C16.1535 47.1419 17.6191 48.8648 19.0847 50.589Z" fill="#F4C19F"/>
<path d="M39.3385 40.6344C38.957 40.6344 38.6434 40.3298 38.6345 39.947C38.6255 39.5579 38.9327 39.2354 39.3218 39.2264C41.0767 39.1854 41.7769 38.6773 42.9685 37.5816C41.6066 34.539 40.8054 31.3109 40.5839 27.9778C40.5583 27.5899 40.8514 27.2546 41.2393 27.229C41.6246 27.2046 41.9625 27.4965 41.9881 27.8843C42.2057 31.1662 43.0594 34.475 44.4572 37.4523C44.5877 37.7288 44.5237 38.0578 44.2997 38.2664C42.669 39.7845 41.709 40.5794 39.3538 40.6331C39.35 40.6344 39.3449 40.6344 39.3385 40.6344Z" fill="#1B1464"/>
<path d="M33.6878 33.8341C34.7142 33.7668 35.4544 32.3128 35.3411 30.5866C35.2278 28.8604 34.3039 27.5156 33.2774 27.583C32.251 27.6503 31.5108 29.1043 31.6241 30.8305C31.7374 32.5567 32.6613 33.9015 33.6878 33.8341Z" fill="#1B1464"/>
<path d="M47.9089 33.4347C48.9354 33.3673 49.6756 31.9134 49.5623 30.1871C49.449 28.4609 48.525 27.1162 47.4986 27.1836C46.4722 27.2509 45.732 28.7049 45.8453 30.4311C45.9586 32.1573 46.8825 33.5021 47.9089 33.4347Z" fill="#1B1464"/>
<path d="M51.1103 27.6167C50.9106 27.6167 50.7109 27.5322 50.5727 27.3671C48.092 24.4334 45.1762 24.491 45.148 24.4897C44.7551 24.5038 44.4351 24.1966 44.4223 23.8074C44.4095 23.4183 44.7154 23.0945 45.1045 23.0817C45.2504 23.0778 48.7333 23.0087 51.6491 26.457C51.9 26.754 51.8629 27.1982 51.5659 27.449C51.4315 27.5617 51.2703 27.6167 51.1103 27.6167Z" fill="#1B1464"/>
<path d="M26.9875 28.7765C26.9388 28.7765 26.8902 28.7713 26.8403 28.7611C26.4601 28.6817 26.2169 28.3029 26.2963 27.9227C26.327 27.7742 27.1423 24.2504 34.3385 22.2472C34.7135 22.1435 35.1014 22.3624 35.2051 22.7361C35.3087 23.1112 35.0899 23.499 34.7161 23.6027C28.4467 25.3486 27.6799 28.1928 27.6723 28.2209C27.6019 28.5537 27.3126 28.7765 26.9875 28.7765Z" fill="#1B1464"/>
<path d="M39.4842 47.8767C38.9274 47.8767 38.3489 47.7947 37.7677 47.6283C36.4148 47.2405 35.2039 46.4687 34.1364 45.7877C33.8087 45.5791 33.7127 45.1426 33.9213 44.8162C34.13 44.4885 34.5652 44.3925 34.8928 44.6011C35.9271 45.2616 36.9972 45.9451 38.153 46.2754C39.3524 46.6184 40.5018 46.5058 41.3069 45.9669C41.6295 45.7506 42.0672 45.8376 42.2836 46.1602C42.4999 46.4827 42.4128 46.9205 42.0903 47.1368C41.3607 47.6258 40.457 47.8767 39.4842 47.8767Z" fill="#1B1464"/>
<path d="M13.934 39.1739C13.4463 37.0209 13.9852 34.5864 14.0914 32.3924C14.1055 32.1147 14.1298 31.8088 14.3142 31.6129C14.6879 31.2148 15.2985 31.5707 15.8028 31.7371C16.7372 32.0443 17.7855 31.5502 18.4038 30.7425C19.1334 29.7902 19.3446 28.5025 19.3766 27.2724C19.3945 26.5761 19.3382 25.9822 19.0655 25.3588C18.9004 24.9838 18.5382 23.9163 18.1362 23.7768C19.7836 24.3451 21.783 24.2504 23.0079 22.9473C23.374 22.5582 23.6505 22.0833 23.886 21.5931C24.5119 20.2875 25.1276 17.9694 23.9462 16.8251C25.0866 17.9732 26.7161 18.8027 28.311 18.4084C29.9379 18.0052 31.1731 15.9227 30.3897 14.3508C31.2025 16.0673 32.2188 17.9643 33.9699 18.4238C35.918 18.9358 38.0543 16.9544 37.847 14.827C38.7046 16.9825 40.0191 19.1355 42.0774 19.9547C44.1343 20.7739 46.9542 19.5425 47.1654 17.2116C47.1091 17.8235 46.8684 18.4776 46.8991 19.0856C47.0143 21.3512 49.0559 23.0945 50.7673 24.1006C52.4057 25.0632 54.3295 26.1294 56.2956 25.8004C58.1555 25.4907 59.0771 23.924 59.351 22.0462C59.5302 20.8161 59.4508 19.4248 58.6444 18.5236C57.7382 19.9496 56.0537 20.7649 54.4499 20.5563C55.3727 20.0123 56.0601 18.9051 55.9052 17.794C55.7209 16.459 54.4294 15.9355 53.3593 16.1915C54.4243 14.827 55.8246 13.812 55.7452 11.787C55.6569 9.5406 53.847 7.25068 52.0716 6.24204C51.1462 5.71596 50.062 5.41132 49.0406 5.66348C48.0191 5.91564 47.1014 6.827 47.0207 7.94188C46.7532 5.75308 45.3567 3.84716 43.6134 2.65804C41.87 1.46892 39.8066 0.918519 37.7535 0.631799C36.4402 0.447479 35.0438 0.377079 33.8534 0.995319C32.663 1.61356 31.7887 3.13036 32.2419 4.45644C30.7097 2.059 27.9539 0.780279 25.2377 0.599799C22.5215 0.419319 19.8284 1.21292 17.2889 2.2574C16.3225 2.65548 15.3164 3.13548 14.7353 4.0494C13.4796 6.02572 14.8556 8.65612 16.2905 10.4865C15.4355 8.60748 13.1327 8.17484 11.1743 8.1326C9.13274 8.08908 6.68538 8.48204 5.83034 10.4584C4.90234 12.6011 6.50489 14.9588 7.99865 16.6984C5.79065 15.7115 2.92857 17.6212 2.79673 20.1697C2.66489 22.7182 5.31192 24.9531 7.60952 24.2299C7.05272 23.476 5.81242 23.7704 5.31962 24.5742C4.82682 25.3768 4.89593 26.4289 5.10073 27.3633C5.43225 28.8827 6.07609 30.324 6.97209 31.5579C7.66201 32.5076 9.18521 33.2692 9.74841 32.2286C8.12025 32.3873 6.64441 33.6916 6.19641 35.3684C5.74841 37.044 6.35897 38.9832 7.66457 40.0315C8.24441 40.4974 8.99321 40.7982 9.69849 40.6164C10.4038 40.4347 10.9874 39.6488 10.8095 38.8987C10.1017 38.5825 9.25817 39.1841 9.02265 39.9624C8.78713 40.7406 9.01113 41.5944 9.34009 42.3329C9.93273 43.6654 10.8748 44.8174 12.0306 45.6264C12.293 45.8094 12.5926 45.9822 12.9023 45.9348C13.3747 45.8632 13.646 45.332 13.8047 44.8532C14.437 42.9512 14.3654 41.0964 13.934 39.1739Z" fill="#444DF2"/>
<path d="M14.8583 26.3496C14.0403 25.3832 12.8973 24.7394 11.337 24.7035C9.0445 24.6511 6.84931 26.2306 6.01987 28.3695C4.68483 31.8139 6.91715 36.0175 9.92643 37.7941C12.5991 39.3711 15.7364 38.452 16.5159 35.3327C16.8615 33.949 16.7258 32.4975 16.5863 31.0779C16.4199 29.3679 15.9079 27.5912 14.8583 26.3496Z" fill="#F4C19F"/>
<path d="M9.83408 34.9154C9.47312 34.9154 9.16593 34.6389 9.13393 34.2729C9.03025 33.0799 9.49745 32.3631 9.90705 31.9714C10.6533 31.2585 11.7426 31.0729 12.5323 31.0434C12.4133 30.7733 12.2392 30.5481 12.0075 30.3637C10.9554 29.5266 9.06353 29.7852 9.04433 29.7877C8.66033 29.8479 8.30065 29.5817 8.24305 29.1977C8.18417 28.8137 8.44913 28.454 8.83313 28.3964C8.93425 28.381 11.3381 28.0341 12.8831 29.2617C13.6229 29.8505 14.0402 30.6799 14.1208 31.7257C14.1374 31.9369 14.0568 32.1455 13.9032 32.2914C13.7483 32.4373 13.5371 32.5052 13.3259 32.4783C12.8574 32.4181 11.5019 32.3925 10.8773 32.9916C10.6034 33.2553 10.492 33.6341 10.5368 34.1513C10.5701 34.5391 10.2834 34.8796 9.8968 34.9141C9.87504 34.9141 9.85456 34.9154 9.83408 34.9154Z" fill="#EAAA7F"/>
<path d="M37.6881 57.821C37.4897 57.821 34.1848 57.8031 29.9492 56.7061C25.9812 55.6783 20.4337 53.4639 16.5451 48.756C16.298 48.4565 16.3403 48.0123 16.6398 47.7653C16.9393 47.5183 17.3835 47.5605 17.6305 47.86C21.2708 52.2671 26.5112 54.356 30.2654 55.3339C34.3704 56.4027 37.6497 56.413 37.6907 56.413C38.0798 56.413 38.3947 56.7279 38.3947 57.1157C38.3947 57.5048 38.0811 57.8197 37.692 57.821C37.692 57.821 37.6907 57.821 37.6881 57.821Z" fill="#1B1464"/>
</g>
<defs>
<clipPath id="clip0_43205_16430">
<rect y="0.5" width="64" height="64" rx="32" fill="white"/>
</clipPath>
</defs>
</svg>
